<?xml version="1.0" encoding="UTF-8" standalone="no"?><svg xmlns="http://www.w3.org/2000/svg" xmlns:xlink="http://www.w3.org/1999/xlink" contentScriptType="application/ecmascript" contentStyleType="text/css" height="295px" preserveAspectRatio="none" style="width:557px;height:295px;" version="1.1" viewBox="0 0 557 295" width="557px" zoomAndPan="magnify"><defs><filter height="300%" id="f6ijkbwwl13ri" width="300%" x="-1" y="-1"><feGaussianBlur result="blurOut" stdDeviation="2.0"/><feColorMatrix in="blurOut" result="blurOut2" type="matrix" values="0 0 0 0 0 0 0 0 0 0 0 0 0 0 0 0 0 0 .4 0"/><feOffset dx="4.0" dy="4.0" in="blurOut2" result="blurOut3"/><feBlend in="SourceGraphic" in2="blurOut3" mode="normal"/></filter></defs><g><!--MD5=[86bdda8388e298096fc78b40a38b8aaa]
cluster Edit-DB--><path d="M266,207 C266,197 302,197 302,197 C302,197 338,197 338,207 L338,273 C338,283 302,283 302,283 C302,283 266,283 266,273 L266,207 " fill="#FFFFFF" filter="url(#f6ijkbwwl13ri)" style="stroke: #000000; stroke-width: 1.5;"/><path d="M266,207 C266,217 302,217 302,217 C302,217 338,217 338,207 " fill="none" style="stroke: #000000; stroke-width: 1.5;"/><text fill="#000000" font-family="sans-serif" font-size="14" font-weight="bold" lengthAdjust="spacingAndGlyphs" textLength="56" x="274" y="231.9951">Edit-DB</text><!--MD5=[81482f7ad4b8b05b72c4caf877cf35cf]
cluster Pub-DB--><path d="M350,207 C350,197 386.5,197 386.5,197 C386.5,197 423,197 423,207 L423,273 C423,283 386.5,283 386.5,283 C386.5,283 350,283 350,273 L350,207 " fill="#FFFFFF" filter="url(#f6ijkbwwl13ri)" style="stroke: #000000; stroke-width: 1.5;"/><path d="M350,207 C350,217 386.5,217 386.5,217 C386.5,217 423,217 423,207 " fill="none" style="stroke: #000000; stroke-width: 1.5;"/><text fill="#000000" font-family="sans-serif" font-size="14" font-weight="bold" lengthAdjust="spacingAndGlyphs" textLength="57" x="358" y="231.9951">Pub-DB</text><!--MD5=[2ff9ccaa2e0dbc3026bb80e65c7b755d]
cluster GRETL--><polygon fill="#FFFFFF" filter="url(#f6ijkbwwl13ri)" points="14,16,70,16,77,38.2969,372,38.2969,372,187,14,187,14,16" style="stroke: #000000; stroke-width: 1.5;"/><line style="stroke: #000000; stroke-width: 1.5;" x1="14" x2="77" y1="38.2969" y2="38.2969"/><text fill="#000000" font-family="sans-serif" font-size="14" font-weight="bold" lengthAdjust="spacingAndGlyphs" textLength="50" x="18" y="30.9951">GRETL</text><!--MD5=[31b21fb70010ea497407a87b0269b7ad]
entity edit--><rect fill="#FEFECE" filter="url(#f6ijkbwwl13ri)" height="36.2969" style="stroke: #A80036; stroke-width: 1.5;" width="50" x="277" y="239"/><rect fill="#FEFECE" height="5" style="stroke: #A80036; stroke-width: 1.5;" width="10" x="272" y="244"/><rect fill="#FEFECE" height="5" style="stroke: #A80036; stroke-width: 1.5;" width="10" x="272" y="265.2969"/><text fill="#000000" font-family="sans-serif" font-size="14" lengthAdjust="spacingAndGlyphs" textLength="30" x="287" y="261.9951">data</text><!--MD5=[0cd0a9fc04650e5908b120a5d7719c2e]
entity pub--><rect fill="#FEFECE" filter="url(#f6ijkbwwl13ri)" height="36.2969" style="stroke: #A80036; stroke-width: 1.5;" width="50" x="362" y="239"/><rect fill="#FEFECE" height="5" style="stroke: #A80036; stroke-width: 1.5;" width="10" x="357" y="244"/><rect fill="#FEFECE" height="5" style="stroke: #A80036; stroke-width: 1.5;" width="10" x="357" y="265.2969"/><text fill="#000000" font-family="sans-serif" font-size="14" lengthAdjust="spacingAndGlyphs" textLength="30" x="372" y="261.9951">data</text><!--MD5=[946216f6e7d79bb60486ce59f4a09758]
entity jenk--><rect fill="#FEFECE" filter="url(#f6ijkbwwl13ri)" height="36.2969" style="stroke: #A80036; stroke-width: 1.5;" width="69" x="280.5" y="43"/><rect fill="#FEFECE" height="5" style="stroke: #A80036; stroke-width: 1.5;" width="10" x="275.5" y="48"/><rect fill="#FEFECE" height="5" style="stroke: #A80036; stroke-width: 1.5;" width="10" x="275.5" y="69.2969"/><text fill="#000000" font-family="sans-serif" font-size="14" lengthAdjust="spacingAndGlyphs" textLength="49" x="290.5" y="65.9951">Jenkins</text><!--MD5=[0cae755b001df2f0010dede1e2bdc42b]
entity gretl--><rect fill="#FEFECE" filter="url(#f6ijkbwwl13ri)" height="36.2969" style="stroke: #A80036; stroke-width: 1.5;" width="123" x="240.5" y="141"/><rect fill="#FEFECE" height="5" style="stroke: #A80036; stroke-width: 1.5;" width="10" x="235.5" y="146"/><rect fill="#FEFECE" height="5" style="stroke: #A80036; stroke-width: 1.5;" width="10" x="235.5" y="167.2969"/><text fill="#000000" font-family="sans-serif" font-size="14" lengthAdjust="spacingAndGlyphs" textLength="103" x="250.5" y="163.9951">GRETL runtime</text><path d="M22.5,139 L22.5,179.2656 A0,0 0 0 0 22.5,179.2656 L205.5,179.2656 A0,0 0 0 0 205.5,179.2656 L205.5,163 L240.3699,159 L205.5,155 L205.5,149 L195.5,139 L22.5,139 A0,0 0 0 0 22.5,139 " fill="#FBFB77" filter="url(#f6ijkbwwl13ri)" style="stroke: #A80036; stroke-width: 1.0;"/><path d="M195.5,139 L195.5,149 L205.5,149 L195.5,139 " fill="#FBFB77" style="stroke: #A80036; stroke-width: 1.0;"/><text fill="#000000" font-family="sans-serif" font-size="13" lengthAdjust="spacingAndGlyphs" textLength="148" x="28.5" y="156.0669">Art der Kommunikation</text><text fill="#000000" font-family="sans-serif" font-size="13" lengthAdjust="spacingAndGlyphs" textLength="158" x="32.5" y="171.1997">Jenkins -&gt; Jenkins Slave?</text><!--MD5=[9ab3177c0a0e3009d2054dc1b40b3e84]
entity lda--><rect fill="#FEFECE" filter="url(#f6ijkbwwl13ri)" height="36.2969" style="stroke: #A80036; stroke-width: 1.5;" width="94" x="452" y="141"/><rect fill="#FEFECE" height="5" style="stroke: #A80036; stroke-width: 1.5;" width="10" x="447" y="146"/><rect fill="#FEFECE" height="5" style="stroke: #A80036; stroke-width: 1.5;" width="10" x="447" y="167.2969"/><text fill="#000000" font-family="sans-serif" font-size="14" lengthAdjust="spacingAndGlyphs" textLength="74" x="462" y="163.9951">OpenLDAP</text><!--MD5=[5ca77e21c6bcece74d0e981bbfd5251c]
entity ldi--><ellipse cx="408" cy="159" fill="#FEFECE" filter="url(#f6ijkbwwl13ri)" rx="8" ry="8" style="stroke: #A80036; stroke-width: 2.0;"/><text fill="#000000" font-family="sans-serif" font-size="14" lengthAdjust="spacingAndGlyphs" textLength="36" x="390" y="188.9951">LDAP</text><!--MD5=[ae38f3df50bbf8acf027574e6a8bac37]
entity repo--><rect fill="#FEFECE" filter="url(#f6ijkbwwl13ri)" height="36.2969" style="stroke: #A80036; stroke-width: 1.5;" width="104" x="138" y="239"/><rect fill="#FEFECE" height="5" style="stroke: #A80036; stroke-width: 1.5;" width="10" x="133" y="244"/><rect fill="#FEFECE" height="5" style="stroke: #A80036; stroke-width: 1.5;" width="10" x="133" y="265.2969"/><text fill="#000000" font-family="sans-serif" font-size="14" lengthAdjust="spacingAndGlyphs" textLength="84" x="148" y="261.9951">Model-Repo</text><!--MD5=[2d30e8113978d148a75683c9387efe9f]
link ldi to lda--><path d="M417.2422,159 C428.7394,159 440.2366,159 451.7338,159 " fill="none" id="ldi-lda" style="stroke: #A80036; stroke-width: 1.0;"/><!--MD5=[d7f5ad1d1d4c390e9a8efdd47330042f]
link jenk to gretl--><path d="M312.5548,79.4331 C310.4352,95.4118 307.3577,118.611 305.0722,135.84 " fill="none" id="jenk-&gt;gretl" style="stroke: #A80036; stroke-width: 1.0;"/><polygon fill="#A80036" points="304.3903,140.9807,309.5392,132.5849,305.0479,136.0241,301.6087,131.5328,304.3903,140.9807" style="stroke: #A80036; stroke-width: 1.0;"/><!--MD5=[af4b24a0f34c8c7e5e08e5154be3b528]
link jenk to ldi--><path d="M332.4926,79.4331 C350.9833,98.9179 379.663,129.1395 395.8337,146.1796 " fill="none" id="jenk-&gt;ldi" style="stroke: #A80036; stroke-width: 1.0;"/><polygon fill="#A80036" points="399.2782,149.8093,395.9844,140.5276,395.8364,146.1825,390.1815,146.0345,399.2782,149.8093" style="stroke: #A80036; stroke-width: 1.0;"/><!--MD5=[236982f2b748ad8c89e3d2bed44e7d84]
link gretl to repo--><path d="M280.9227,177.1238 C273.6462,183.4017 265.4517,190.4951 258,197 C243.4892,209.6673 227.3172,223.9306 214.386,235.3714 " fill="none" id="gretl-&gt;repo" style="stroke: #A80036; stroke-width: 1.0;"/><polygon fill="#A80036" points="210.4823,238.8265,219.8728,235.8569,214.2264,235.5127,214.5707,229.8663,210.4823,238.8265" style="stroke: #A80036; stroke-width: 1.0;"/><!--MD5=[1ad07280fc2d2732df870fe7b37582f0]
link gretl to edit--><path d="M302,177.4331 C302,193.4118 302,216.611 302,233.84 " fill="none" id="gretl-&gt;edit" style="stroke: #A80036; stroke-width: 1.0;"/><polygon fill="#A80036" points="302,238.9807,306,229.9807,302,233.9807,298,229.9807,302,238.9807" style="stroke: #A80036; stroke-width: 1.0;"/><!--MD5=[8d8ba7f5bedb287e12d4c59171a23e6e]
link gretl to pub--><path d="M325.4213,177.2768 C332.3926,183.2182 339.8148,190.0739 346,197 C356.2379,208.4644 366.0169,222.6055 373.4552,234.2793 " fill="none" id="gretl-&gt;pub" style="stroke: #A80036; stroke-width: 1.0;"/><polygon fill="#A80036" points="376.2892,238.7857,374.8839,229.0376,373.6274,234.5531,368.1118,233.2966,376.2892,238.7857" style="stroke: #A80036; stroke-width: 1.0;"/><!--MD5=[7cd316a4aa71f5e381d29fae328e1223]
@startuml
[OpenLDAP] as lda
() LDAP as ldi
ldi - lda

database "Edit-DB" {
  [data] as edit
}

database "Pub-DB" {
  [data] as pub
}

[Model-Repo] as repo


package "GRETL" {
  [Jenkins] as jenk
  [GRETL runtime] as gretl
  jenk - -> gretl
  jenk - -> ldi
  gretl - -> repo
  gretl - -> edit
  gretl - -> pub
  
  note left of gretl
  	Art der Kommunikation 
    Jenkins -> Jenkins Slave?
  end note
}
@enduml

PlantUML version 1.2019.11(Sun Sep 22 10:02:15 GMT 2019)
(GPL source distribution)
Java Runtime: OpenJDK Runtime Environment
JVM: OpenJDK 64-Bit Server VM
Java Version: 14-ea+15
Operating System: Linux
Default Encoding: UTF-8
Language: en
Country: US
--></g></svg>