<?xml version="1.0" encoding="UTF-8" standalone="no"?><svg xmlns="http://www.w3.org/2000/svg" xmlns:xlink="http://www.w3.org/1999/xlink" contentScriptType="application/ecmascript" contentStyleType="text/css" height="277px" preserveAspectRatio="none" style="width:551px;height:277px;" version="1.1" viewBox="0 0 551 277" width="551px" zoomAndPan="magnify"><defs><filter height="300%" id="f1nlmkthsh0bvl" width="300%" x="-1" y="-1"><feGaussianBlur result="blurOut" stdDeviation="2.0"/><feColorMatrix in="blurOut" result="blurOut2" type="matrix" values="0 0 0 0 0 0 0 0 0 0 0 0 0 0 0 0 0 0 .4 0"/><feOffset dx="4.0" dy="4.0" in="blurOut2" result="blurOut3"/><feBlend in="SourceGraphic" in2="blurOut3" mode="normal"/></filter></defs><g><!--MD5=[9a2e14545ff35eb8fb8c7a6692523083]
cluster Config-DB--><path d="M317,88 C317,78 364,78 364,78 C364,78 411,78 411,88 L411,154 C411,164 364,164 364,164 C364,164 317,164 317,154 L317,88 " fill="#FFFFFF" filter="url(#f1nlmkthsh0bvl)" style="stroke: #000000; stroke-width: 1.5;"/><path d="M317,88 C317,98 364,98 364,98 C364,98 411,98 411,88 " fill="none" style="stroke: #000000; stroke-width: 1.5;"/><text fill="#000000" font-family="sans-serif" font-size="14" font-weight="bold" lengthAdjust="spacingAndGlyphs" textLength="78" x="325" y="112.9951">Config-DB</text><!--MD5=[3a337bb9fa499dcfc2248c91a2444cbc]
cluster Geo-DB--><path d="M231,88 C231,78 268.5,78 268.5,78 C268.5,78 306,78 306,88 L306,154 C306,164 268.5,164 268.5,164 C268.5,164 231,164 231,154 L231,88 " fill="#FFFFFF" filter="url(#f1nlmkthsh0bvl)" style="stroke: #000000; stroke-width: 1.5;"/><path d="M231,88 C231,98 268.5,98 268.5,98 C268.5,98 306,98 306,88 " fill="none" style="stroke: #000000; stroke-width: 1.5;"/><text fill="#000000" font-family="sans-serif" font-size="14" font-weight="bold" lengthAdjust="spacingAndGlyphs" textLength="59" x="239" y="112.9951">Geo-DB</text><polygon fill="#FFFFFF" filter="url(#f1nlmkthsh0bvl)" points="277,218,287,208,464,208,464,250,454,260,277,260,277,218" style="stroke: #000000; stroke-width: 1.5;"/><line style="stroke: #000000; stroke-width: 1.5;" x1="454" x2="463" y1="218" y2="209"/><line style="stroke: #000000; stroke-width: 1.5;" x1="277" x2="454" y1="218" y2="218"/><line style="stroke: #000000; stroke-width: 1.5;" x1="454" x2="454" y1="218" y2="260"/><polygon fill="#FFFFFF" filter="url(#f1nlmkthsh0bvl)" points="354,26,364,16,529,16,529,58,519,68,354,68,354,26" style="stroke: #000000; stroke-width: 1.5;"/><line style="stroke: #000000; stroke-width: 1.5;" x1="519" x2="528" y1="26" y2="17"/><line style="stroke: #000000; stroke-width: 1.5;" x1="354" x2="519" y1="26" y2="26"/><line style="stroke: #000000; stroke-width: 1.5;" x1="519" x2="519" y1="26" y2="68"/><polygon fill="#FFFFFF" filter="url(#f1nlmkthsh0bvl)" points="150,26,160,16,335,16,335,58,325,68,150,68,150,26" style="stroke: #000000; stroke-width: 1.5;"/><line style="stroke: #000000; stroke-width: 1.5;" x1="325" x2="334" y1="26" y2="17"/><line style="stroke: #000000; stroke-width: 1.5;" x1="150" x2="325" y1="26" y2="26"/><line style="stroke: #000000; stroke-width: 1.5;" x1="325" x2="325" y1="26" y2="68"/><!--MD5=[caf660ac2a54b55a5c31b5515889e628]
entity config--><rect fill="#FEFECE" filter="url(#f1nlmkthsh0bvl)" height="36.2969" style="stroke: #A80036; stroke-width: 1.5;" width="50" x="329" y="120"/><rect fill="#FEFECE" height="5" style="stroke: #A80036; stroke-width: 1.5;" width="10" x="324" y="125"/><rect fill="#FEFECE" height="5" style="stroke: #A80036; stroke-width: 1.5;" width="10" x="324" y="146.2969"/><text fill="#000000" font-family="sans-serif" font-size="14" lengthAdjust="spacingAndGlyphs" textLength="30" x="339" y="142.9951">data</text><!--MD5=[703ea5a149c5871c74522bf38bdfe548]
entity data--><rect fill="#FEFECE" filter="url(#f1nlmkthsh0bvl)" height="36.2969" style="stroke: #A80036; stroke-width: 1.5;" width="50" x="244" y="120"/><rect fill="#FEFECE" height="5" style="stroke: #A80036; stroke-width: 1.5;" width="10" x="239" y="125"/><rect fill="#FEFECE" height="5" style="stroke: #A80036; stroke-width: 1.5;" width="10" x="239" y="146.2969"/><text fill="#000000" font-family="sans-serif" font-size="14" lengthAdjust="spacingAndGlyphs" textLength="30" x="254" y="142.9951">data</text><!--MD5=[72f941736658486a9447ee9af01ffec8]
entity ss--><rect fill="#FEFECE" filter="url(#f1nlmkthsh0bvl)" height="36.2969" style="stroke: #A80036; stroke-width: 1.5;" width="117" x="285.5" y="216"/><rect fill="#FEFECE" height="5" style="stroke: #A80036; stroke-width: 1.5;" width="10" x="280.5" y="221"/><rect fill="#FEFECE" height="5" style="stroke: #A80036; stroke-width: 1.5;" width="10" x="280.5" y="242.2969"/><text fill="#000000" font-family="sans-serif" font-size="14" lengthAdjust="spacingAndGlyphs" textLength="97" x="295.5" y="238.9951">Searchservice</text><!--MD5=[063cbf6762d4fa7b9db7b3b5ba06ac49]
entity ssi--><ellipse cx="447" cy="234" fill="#FEFECE" filter="url(#f1nlmkthsh0bvl)" rx="8" ry="8" style="stroke: #A80036; stroke-width: 2.0;"/><text fill="#000000" font-family="sans-serif" font-size="14" lengthAdjust="spacingAndGlyphs" textLength="37" x="428.5" y="263.9951">HTTP</text><!--MD5=[b13ec714ea565cac7b3f4767f5bea1f1]
entity ccc--><rect fill="#FEFECE" filter="url(#f1nlmkthsh0bvl)" height="36.2969" style="stroke: #A80036; stroke-width: 1.5;" width="105" x="415.5" y="24"/><rect fill="#FEFECE" height="5" style="stroke: #A80036; stroke-width: 1.5;" width="10" x="410.5" y="29"/><rect fill="#FEFECE" height="5" style="stroke: #A80036; stroke-width: 1.5;" width="10" x="410.5" y="50.2969"/><text fill="#000000" font-family="sans-serif" font-size="14" lengthAdjust="spacingAndGlyphs" textLength="85" x="425.5" y="46.9951">CCC-Service</text><!--MD5=[204f161ba43bae9b5d7f21a528a2f698]
entity ccci--><ellipse cx="371" cy="42" fill="#FEFECE" filter="url(#f1nlmkthsh0bvl)" rx="8" ry="8" style="stroke: #A80036; stroke-width: 2.0;"/><text fill="#000000" font-family="sans-serif" font-size="14" lengthAdjust="spacingAndGlyphs" textLength="22" x="360" y="71.9951">WS</text><!--MD5=[286ae1304c20c3039bda0903ebff3c27]
entity ogc--><rect fill="#FEFECE" filter="url(#f1nlmkthsh0bvl)" height="36.2969" style="stroke: #A80036; stroke-width: 1.5;" width="115" x="211.5" y="24"/><rect fill="#FEFECE" height="5" style="stroke: #A80036; stroke-width: 1.5;" width="10" x="206.5" y="29"/><rect fill="#FEFECE" height="5" style="stroke: #A80036; stroke-width: 1.5;" width="10" x="206.5" y="50.2969"/><text fill="#000000" font-family="sans-serif" font-size="14" lengthAdjust="spacingAndGlyphs" textLength="95" x="221.5" y="46.9951">OGC-Services</text><!--MD5=[e92b982afa33321c4febf4918b0cb152]
entity ogi--><ellipse cx="167" cy="42" fill="#FEFECE" filter="url(#f1nlmkthsh0bvl)" rx="8" ry="8" style="stroke: #A80036; stroke-width: 2.0;"/><text fill="#000000" font-family="sans-serif" font-size="14" lengthAdjust="spacingAndGlyphs" textLength="37" x="148.5" y="71.9951">HTTP</text><!--MD5=[6857688d619609624168cacb5f029075]
entity ps--><rect fill="#FEFECE" filter="url(#f1nlmkthsh0bvl)" height="36.2969" style="stroke: #A80036; stroke-width: 1.5;" width="150" x="6" y="120"/><rect fill="#FEFECE" height="5" style="stroke: #A80036; stroke-width: 1.5;" width="10" x="1" y="125"/><rect fill="#FEFECE" height="5" style="stroke: #A80036; stroke-width: 1.5;" width="10" x="1" y="146.2969"/><text fill="#000000" font-family="sans-serif" font-size="14" lengthAdjust="spacingAndGlyphs" textLength="130" x="16" y="142.9951">Permission Service</text><!--MD5=[597be0cb6d297b3cdca9a72786000b3c]
entity psi--><ellipse cx="200" cy="138" fill="#FEFECE" filter="url(#f1nlmkthsh0bvl)" rx="8" ry="8" style="stroke: #A80036; stroke-width: 2.0;"/><text fill="#000000" font-family="sans-serif" font-size="14" lengthAdjust="spacingAndGlyphs" textLength="37" x="181.5" y="167.9951">HTTP</text><!--MD5=[727c1040af9be188ab17d19c49f9ac10]
entity ds--><rect fill="#FEFECE" filter="url(#f1nlmkthsh0bvl)" height="36.2969" style="stroke: #A80036; stroke-width: 1.5;" width="101" x="149.5" y="216"/><rect fill="#FEFECE" height="5" style="stroke: #A80036; stroke-width: 1.5;" width="10" x="144.5" y="221"/><rect fill="#FEFECE" height="5" style="stroke: #A80036; stroke-width: 1.5;" width="10" x="144.5" y="242.2969"/><text fill="#000000" font-family="sans-serif" font-size="14" lengthAdjust="spacingAndGlyphs" textLength="81" x="159.5" y="238.9951">Dataservice</text><!--MD5=[1d42f4435bbf9d96b0849b1fd5c61acc]
entity dsi--><ellipse cx="105" cy="234" fill="#FEFECE" filter="url(#f1nlmkthsh0bvl)" rx="8" ry="8" style="stroke: #A80036; stroke-width: 2.0;"/><text fill="#000000" font-family="sans-serif" font-size="14" lengthAdjust="spacingAndGlyphs" textLength="37" x="86.5" y="263.9951">HTTP</text><!--MD5=[c79388d7ef4ae2b4d9d76db5dc1a13e5]
link ps to psi--><path d="M156.3047,138 C167.7975,138 179.2902,138 190.783,138 " fill="none" id="ps-psi" style="stroke: #A80036; stroke-width: 1.0;"/><!--MD5=[132640c64309e98773df4aa961024e41]
link ss to ssi--><path d="M402.7422,234 C414.3829,234 426.0236,234 437.6644,234 " fill="none" id="ss-ssi" style="stroke: #A80036; stroke-width: 1.0;"/><!--MD5=[2b88da3f034401b4c2c685977a26b120]
reverse link psi to ss--><path d="M210.2444,151.2139 C213.9861,155.5746 218.4281,160.2611 223,164 C248.4557,184.818 280.863,203.2091 305.7313,215.9101 " fill="none" id="psi&lt;-ss" style="stroke: #A80036; stroke-width: 1.0;"/><polygon fill="#A80036" points="207.0214,147.3374,209.6993,156.8152,210.2179,151.1822,215.8509,151.7008,207.0214,147.3374" style="stroke: #A80036; stroke-width: 1.0;"/><!--MD5=[65f4a0ff8b3d6734aaef3be0c4c464cf]
reverse link data to ss--><path d="M286.3436,160.1998 C299.4981,177.0376 317.3607,199.9017 329.7013,215.6977 " fill="none" id="data&lt;-ss" style="stroke: #A80036; stroke-width: 1.0;"/><polygon fill="#A80036" points="283.1069,156.0569,285.4957,165.6117,286.1852,159.997,291.7998,160.6865,283.1069,156.0569" style="stroke: #A80036; stroke-width: 1.0;"/><!--MD5=[32d00b6d2f70cd6dbd91dd810507f783]
reverse link config to ss--><path d="M351.5978,161.0611 C349.8531,177.8106 347.524,200.1694 345.9065,215.6977 " fill="none" id="config&lt;-ss" style="stroke: #A80036; stroke-width: 1.0;"/><polygon fill="#A80036" points="352.1191,156.0569,347.208,164.5939,351.6009,161.03,355.1649,165.423,352.1191,156.0569" style="stroke: #A80036; stroke-width: 1.0;"/><!--MD5=[7b01e19f8baed2eefa6e900310acfe3c]
link dsi to ds--><path d="M114.2773,234 C125.9972,234 137.7171,234 149.437,234 " fill="none" id="dsi-ds" style="stroke: #A80036; stroke-width: 1.0;"/><!--MD5=[d661d1243a2ae788573b01b88c526f10]
reverse link psi to ds--><path d="M200,152.4955 C200,169.4412 200,197.5019 200,215.8726 " fill="none" id="psi&lt;-ds" style="stroke: #A80036; stroke-width: 1.0;"/><polygon fill="#A80036" points="200,147.2049,196,156.2049,200,152.2049,204,156.2049,200,147.2049" style="stroke: #A80036; stroke-width: 1.0;"/><!--MD5=[9e336773d5e7845e6e78947e0a3a8b1f]
reverse link data to ds--><path d="M253.0439,160.1998 C240.9418,177.0376 224.5081,199.9017 213.1548,215.6977 " fill="none" id="data&lt;-ds" style="stroke: #A80036; stroke-width: 1.0;"/><polygon fill="#A80036" points="256.0216,156.0569,247.5208,161.0305,253.1034,160.117,254.0169,165.6996,256.0216,156.0569" style="stroke: #A80036; stroke-width: 1.0;"/><!--MD5=[4ec116cd93e0c6fd9122785ba34c73e7]
link ccci to ccc--><path d="M380.0938,42 C391.8833,42 403.6728,42 415.4623,42 " fill="none" id="ccci-ccc" style="stroke: #A80036; stroke-width: 1.0;"/><!--MD5=[4989e852dfb7dc20540c7c40e132c97c]
link ogi to ogc--><path d="M176.1641,42 C187.8894,42 199.6148,42 211.3402,42 " fill="none" id="ogi-ogc" style="stroke: #A80036; stroke-width: 1.0;"/><!--MD5=[176f5523edffc125828dc11c1aad5bb0]
link ogc to data--><path d="M269,60.0569 C269,75.5126 269,97.8647 269,114.6731 " fill="none" id="ogc-&gt;data" style="stroke: #A80036; stroke-width: 1.0;"/><polygon fill="#A80036" points="269,119.6977,273,110.6977,269,114.6977,265,110.6977,269,119.6977" style="stroke: #A80036; stroke-width: 1.0;"/><!--MD5=[9335605c2fdf9c7b3fd772cfd5afd6ee]
link ogc to config--><path d="M294.4844,60.1512 C301.1991,65.5141 308.1854,71.6579 314,78 C324.3818,89.3237 334.0014,103.5776 341.2042,115.3508 " fill="none" id="ogc-&gt;config" style="stroke: #A80036; stroke-width: 1.0;"/><polygon fill="#A80036" points="343.9409,119.8954,342.7248,110.1219,341.3616,115.6121,335.8714,114.2488,343.9409,119.8954" style="stroke: #A80036; stroke-width: 1.0;"/><!--MD5=[d6a8c519f3da0be8b23a03aa98958dcb]
link ogc to psi--><path d="M240.9846,60.0167 C234.4377,65.2152 227.942,71.3122 223,78 C212.7899,91.8167 206.5406,110.7229 203.1816,123.5952 " fill="none" id="ogc-&gt;psi" style="stroke: #A80036; stroke-width: 1.0;"/><polygon fill="#A80036" points="201.9159,128.7101,207.9608,120.9346,203.117,123.8565,200.1951,119.0127,201.9159,128.7101" style="stroke: #A80036; stroke-width: 1.0;"/><!--MD5=[7d310cab09265d22c7d0994a6816a619]
@startuml
[Permission Service] as ps
() HTTP as psi
psi -left- ps
 
database "Config-DB" {
  [data] as config
}

database "Geo-DB" {
  [data] as data
}

node {
  [Searchservice] as ss
  () HTTP as ssi
  ss - ssi
  ss -up-> psi
  ss -up-> data
  ss -up-> config
}

[Dataservice] as ds
() HTTP as dsi
dsi -ds
ds -up-> psi
ds -up-> data

node {
  [CCC-Service] as ccc
  () WS as ccci
  ccci - ccc
}

node {
    [OGC-Services] as ogc
    () HTTP as ogi
    ogi - ogc
    ogc - -> data
    ogc - -> config
    ogc - -> psi
}
@enduml

PlantUML version 1.2019.11(Sun Sep 22 10:02:15 GMT 2019)
(GPL source distribution)
Java Runtime: OpenJDK Runtime Environment
JVM: OpenJDK 64-Bit Server VM
Java Version: 14-ea+15
Operating System: Linux
Default Encoding: UTF-8
Language: en
Country: US
--></g></svg>