<?xml version="1.0" encoding="UTF-8" standalone="no"?><svg xmlns="http://www.w3.org/2000/svg" xmlns:xlink="http://www.w3.org/1999/xlink" contentScriptType="application/ecmascript" contentStyleType="text/css" height="247px" preserveAspectRatio="none" style="width:650px;height:247px;" version="1.1" viewBox="0 0 650 247" width="650px" zoomAndPan="magnify"><defs><filter height="300%" id="ftkechc4klbri" width="300%" x="-1" y="-1"><feGaussianBlur result="blurOut" stdDeviation="2.0"/><feColorMatrix in="blurOut" result="blurOut2" type="matrix" values="0 0 0 0 0 0 0 0 0 0 0 0 0 0 0 0 0 0 .4 0"/><feOffset dx="4.0" dy="4.0" in="blurOut2" result="blurOut3"/><feBlend in="SourceGraphic" in2="blurOut3" mode="normal"/></filter></defs><g><!--MD5=[b13ec714ea565cac7b3f4767f5bea1f1]
entity ccc--><rect fill="#FEFECE" filter="url(#ftkechc4klbri)" height="36.2969" style="stroke: #A80036; stroke-width: 1.5;" width="105" x="349.5" y="151.5"/><rect fill="#FEFECE" height="5" style="stroke: #A80036; stroke-width: 1.5;" width="10" x="344.5" y="156.5"/><rect fill="#FEFECE" height="5" style="stroke: #A80036; stroke-width: 1.5;" width="10" x="344.5" y="177.7969"/><text fill="#000000" font-family="sans-serif" font-size="14" lengthAdjust="spacingAndGlyphs" textLength="85" x="359.5" y="174.4951">CCC-Service</text><!--MD5=[9b2642c13c00fb3398af8b6cd620f76a]
entity cci--><ellipse cx="499" cy="169.5" fill="#FEFECE" filter="url(#ftkechc4klbri)" rx="8" ry="8" style="stroke: #A80036; stroke-width: 2.0;"/><text fill="#000000" font-family="sans-serif" font-size="14" lengthAdjust="spacingAndGlyphs" textLength="22" x="488" y="199.4951">WS</text><path d="M6,104 L6,235.0625 A0,0 0 0 0 6,235.0625 L314,235.0625 A0,0 0 0 0 314,235.0625 L314,173.5 L349.458,169.5 L314,165.5 L314,114 L304,104 L6,104 A0,0 0 0 0 6,104 " fill="#FBFB77" filter="url(#ftkechc4klbri)" style="stroke: #A80036; stroke-width: 1.0;"/><path d="M304,104 L304,114 L314,114 L304,104 " fill="#FBFB77" style="stroke: #A80036; stroke-width: 1.0;"/><text fill="#000000" font-family="sans-serif" font-size="13" lengthAdjust="spacingAndGlyphs" textLength="275" x="12" y="121.0669">Diagramm zeigt die Verbindungsaufnahme</text><text fill="#000000" font-family="sans-serif" font-size="13" lengthAdjust="spacingAndGlyphs" textLength="263" x="24" y="136.1997">von Fach- und Kartenapplikation mit dem</text><text fill="#000000" font-family="sans-serif" font-size="13" lengthAdjust="spacingAndGlyphs" textLength="83" x="24" y="151.3325">CCC-Service.</text><text fill="#000000" font-family="sans-serif" font-size="13" lengthAdjust="spacingAndGlyphs" textLength="275" x="24" y="166.4653">Nach der Verbindungsaufnahme erfolgt die</text><text fill="#000000" font-family="sans-serif" font-size="13" lengthAdjust="spacingAndGlyphs" textLength="185" x="24" y="181.5981">Kommunikation bidirektional.</text><text fill="#000000" font-family="sans-serif" font-size="13" lengthAdjust="spacingAndGlyphs" textLength="0" x="24" y="196.731"/><text fill="#000000" font-family="sans-serif" font-size="13" lengthAdjust="spacingAndGlyphs" textLength="244" x="24" y="211.8638">Diagramm hat so wenig Aussagekraft.</text><text fill="#000000" font-family="sans-serif" font-size="13" lengthAdjust="spacingAndGlyphs" textLength="238" x="24" y="226.9966">Evtl. ersetzen mit Sequenzdiagramm</text><!--MD5=[bd536215bacd77b1228d5eaaf329efa6]
entity fa--><rect fill="#FEFECE" filter="url(#ftkechc4klbri)" height="36.2969" style="stroke: #A80036; stroke-width: 1.5;" width="127" x="199.5" y="8"/><rect fill="#FEFECE" height="5" style="stroke: #A80036; stroke-width: 1.5;" width="10" x="194.5" y="13"/><rect fill="#FEFECE" height="5" style="stroke: #A80036; stroke-width: 1.5;" width="10" x="194.5" y="34.2969"/><text fill="#000000" font-family="sans-serif" font-size="14" lengthAdjust="spacingAndGlyphs" textLength="107" x="209.5" y="30.9951">Fachapplikation</text><!--MD5=[ac9ae052a13b721fed33d89346cf9e05]
entity fai--><ellipse cx="371" cy="26" fill="#FEFECE" filter="url(#ftkechc4klbri)" rx="8" ry="8" style="stroke: #A80036; stroke-width: 2.0;"/><text fill="#000000" font-family="sans-serif" font-size="14" lengthAdjust="spacingAndGlyphs" textLength="22" x="360" y="55.9951">WS</text><!--MD5=[b22fe458516d66aa207201bb8ade8020]
entity gis--><rect fill="#FEFECE" filter="url(#ftkechc4klbri)" height="36.2969" style="stroke: #A80036; stroke-width: 1.5;" width="168" x="415" y="8"/><rect fill="#FEFECE" height="5" style="stroke: #A80036; stroke-width: 1.5;" width="10" x="410" y="13"/><rect fill="#FEFECE" height="5" style="stroke: #A80036; stroke-width: 1.5;" width="10" x="410" y="34.2969"/><text fill="#000000" font-family="sans-serif" font-size="14" lengthAdjust="spacingAndGlyphs" textLength="148" x="425" y="30.9951">GDI Kartenapplikation</text><!--MD5=[a656dac6908c9874f7ca9d01a075a925]
entity gisi--><ellipse cx="627" cy="26" fill="#FEFECE" filter="url(#ftkechc4klbri)" rx="8" ry="8" style="stroke: #A80036; stroke-width: 2.0;"/><text fill="#000000" font-family="sans-serif" font-size="14" lengthAdjust="spacingAndGlyphs" textLength="22" x="616" y="55.9951">WS</text><!--MD5=[28935a1b1b691d5a34c0200048b8639e]
link ccc to cci--><path d="M454.668,169.5 C466.444,169.5 478.219,169.5 489.995,169.5 " fill="none" id="ccc-cci" style="stroke: #A80036; stroke-width: 1.0;"/><!--MD5=[088f96e52ef47160ee66de818b34b605]
link fa to fai--><path d="M326.703,26 C338.354,26 350.005,26 361.656,26 " fill="none" id="fa-fai" style="stroke: #A80036; stroke-width: 1.0;"/><!--MD5=[78ff14ffd87e3e6e4ae3537e085a25db]
link fai to cci--><path d="M380.107,33.038 C402.277,47.875 458.248,86.204 472,104 C484.058,119.603 491.684,141.3738 495.649,155.2034 " fill="none" id="fai-&gt;cci" style="stroke: #A80036; stroke-width: 1.0;"/><polygon fill="#A80036" points="497.035,160.2579,498.5108,150.5202,495.7119,155.4361,490.796,152.6372,497.035,160.2579" style="stroke: #A80036; stroke-width: 1.0;"/><!--MD5=[190a5623de1493ff3101dbaff8094628]
link gis to gisi--><path d="M583,26 C594.573,26 606.146,26 617.719,26 " fill="none" id="gis-gisi" style="stroke: #A80036; stroke-width: 1.0;"/><!--MD5=[814e3df216510ff0253408627fb0d62b]
link gisi to cci--><path d="M619.751,35.013 C598.379,58.64 535.517,128.132 509.976,156.3664 " fill="none" id="gisi-&gt;cci" style="stroke: #A80036; stroke-width: 1.0;"/><polygon fill="#A80036" points="506.488,160.2223,515.4917,156.2307,509.842,156.5141,509.5586,150.8643,506.488,160.2223" style="stroke: #A80036; stroke-width: 1.0;"/><!--MD5=[bbd5c9e74d4257d92e9e9b08d556decf]
@startuml
[CCC-Service] as ccc
() WS as cci
ccc - cci

note left of ccc
	Diagramm zeigt die Verbindungsaufnahme
    von Fach- und Kartenapplikation mit dem
    CCC-Service.
    Nach der Verbindungsaufnahme erfolgt die
    Kommunikation bidirektional.
    
    Diagramm hat so wenig Aussagekraft. 
    Evtl. ersetzen mit Sequenzdiagramm
end note

[Fachapplikation] as fa
() WS as fai
fa - fai
fai - -> cci

[GDI Kartenapplikation] as gis
() WS as gisi
gis - gisi
gisi - -> cci
@enduml

PlantUML version 1.2019.13(Tue Dec 10 17:18:29 UTC 2019)
(GPL source distribution)
Java Runtime: OpenJDK Runtime Environment
JVM: OpenJDK 64-Bit Server VM
Java Version: 1.8.0_232-b09
Operating System: Linux
Default Encoding: ANSI_X3.4-1968
Language: en
Country: US
--></g></svg>