<?xml version="1.0" encoding="UTF-8" standalone="no"?><svg xmlns="http://www.w3.org/2000/svg" xmlns:xlink="http://www.w3.org/1999/xlink" contentScriptType="application/ecmascript" contentStyleType="text/css" height="820px" preserveAspectRatio="none" style="width:726px;height:820px;" version="1.1" viewBox="0 0 726 820" width="726px" zoomAndPan="magnify"><defs><filter height="300%" id="fhcs3m8ffwqwz" width="300%" x="-1" y="-1"><feGaussianBlur result="blurOut" stdDeviation="2.0"/><feColorMatrix in="blurOut" result="blurOut2" type="matrix" values="0 0 0 0 0 0 0 0 0 0 0 0 0 0 0 0 0 0 .4 0"/><feOffset dx="4.0" dy="4.0" in="blurOut2" result="blurOut3"/><feBlend in="SourceGraphic" in2="blurOut3" mode="normal"/></filter></defs><g><!--MD5=[9a2e14545ff35eb8fb8c7a6692523083]
cluster Config-DB--><path d="M354,716 C354,706 401,706 401,706 C401,706 448,706 448,716 L448,798 C448,808 401,808 401,808 C401,808 354,808 354,798 L354,716 " fill="#FFFFFF" filter="url(#fhcs3m8ffwqwz)" style="stroke: #000000; stroke-width: 1.5;"/><path d="M354,716 C354,726 401,726 401,726 C401,726 448,726 448,716 " fill="none" style="stroke: #000000; stroke-width: 1.5;"/><text fill="#000000" font-family="sans-serif" font-size="14" font-weight="bold" lengthAdjust="spacingAndGlyphs" textLength="78" x="362" y="740.9951">Config-DB</text><!--MD5=[3a337bb9fa499dcfc2248c91a2444cbc]
cluster Geo-DB--><path d="M173,716 C173,706 214,706 214,706 C214,706 255,706 255,716 L255,798 C255,808 214,808 214,808 C214,808 173,808 173,798 L173,716 " fill="#FFFFFF" filter="url(#fhcs3m8ffwqwz)" style="stroke: #000000; stroke-width: 1.5;"/><path d="M173,716 C173,726 214,726 214,726 C214,726 255,726 255,716 " fill="none" style="stroke: #000000; stroke-width: 1.5;"/><text fill="#000000" font-family="sans-serif" font-size="14" font-weight="bold" lengthAdjust="spacingAndGlyphs" textLength="59" x="184.5" y="740.9951">Geo-DB</text><!--MD5=[8e2413e6c4d4e01905fdddcd4669f29c]
cluster QGIS as OGC Server--><polygon fill="#FFFFFF" filter="url(#fhcs3m8ffwqwz)" points="22,91.5,187,91.5,194,113.7969,486,113.7969,486,673,22,673,22,91.5" style="stroke: #000000; stroke-width: 1.5;"/><line style="stroke: #000000; stroke-width: 1.5;" x1="22" x2="194" y1="113.7969" y2="113.7969"/><text fill="#000000" font-family="sans-serif" font-size="14" font-weight="bold" lengthAdjust="spacingAndGlyphs" textLength="159" x="26" y="106.4951">QGIS as OGC Server</text><!--MD5=[1ae8f8ef0c5cd9e3d1d9f230a222b64c]
cluster WMS Feature Info--><polygon fill="#FFFFFF" filter="url(#fhcs3m8ffwqwz)" points="46,267,191,267,198,289.2969,412,289.2969,412,548,46,548,46,267" style="stroke: #000000; stroke-width: 1.5;"/><line style="stroke: #000000; stroke-width: 1.5;" x1="46" x2="198" y1="289.2969" y2="289.2969"/><text fill="#000000" font-family="sans-serif" font-size="14" font-weight="bold" lengthAdjust="spacingAndGlyphs" textLength="139" x="50" y="281.9951">WMS Feature Info</text><!--MD5=[caf660ac2a54b55a5c31b5515889e628]
entity config--><rect fill="#FEFECE" filter="url(#fhcs3m8ffwqwz)" height="36.2969" style="stroke: #A80036; stroke-width: 1.5;" width="50" x="376" y="756"/><rect fill="#FEFECE" height="5" style="stroke: #A80036; stroke-width: 1.5;" width="10" x="371" y="761"/><rect fill="#FEFECE" height="5" style="stroke: #A80036; stroke-width: 1.5;" width="10" x="371" y="782.2969"/><text fill="#000000" font-family="sans-serif" font-size="14" lengthAdjust="spacingAndGlyphs" textLength="30" x="386" y="778.9951">data</text><!--MD5=[703ea5a149c5871c74522bf38bdfe548]
entity data--><rect fill="#FEFECE" filter="url(#fhcs3m8ffwqwz)" height="36.2969" style="stroke: #A80036; stroke-width: 1.5;" width="50" x="189" y="756"/><rect fill="#FEFECE" height="5" style="stroke: #A80036; stroke-width: 1.5;" width="10" x="184" y="761"/><rect fill="#FEFECE" height="5" style="stroke: #A80036; stroke-width: 1.5;" width="10" x="184" y="782.2969"/><text fill="#000000" font-family="sans-serif" font-size="14" lengthAdjust="spacingAndGlyphs" textLength="30" x="199" y="778.9951">data</text><path d="M82,133 L82,203.5313 L300,203.5313 L300,143 L290,133 L82,133 " fill="#FBFB77" filter="url(#fhcs3m8ffwqwz)" style="stroke: #A80036; stroke-width: 1.0;"/><path d="M290,133 L290,143 L300,143 L290,133 " fill="#FBFB77" style="stroke: #A80036; stroke-width: 1.0;"/><text fill="#000000" font-family="sans-serif" font-size="13" lengthAdjust="spacingAndGlyphs" textLength="175" x="88" y="150.0669">Proxy (OGC-Service) macht</text><text fill="#000000" font-family="sans-serif" font-size="13" lengthAdjust="spacingAndGlyphs" textLength="174" x="100" y="165.1997">access management sowie</text><text fill="#000000" font-family="sans-serif" font-size="13" lengthAdjust="spacingAndGlyphs" textLength="120" x="100" y="180.3325">Strukturumbau bei</text><text fill="#000000" font-family="sans-serif" font-size="13" lengthAdjust="spacingAndGlyphs" textLength="185" x="100" y="195.4653">WMS-Aufruf (Facadelayer, ...)</text><!--MD5=[77deed6ead6ed69359d7d86334611f48]
entity qs--><rect fill="#FEFECE" filter="url(#fhcs3m8ffwqwz)" height="36.2969" style="stroke: #A80036; stroke-width: 1.5;" width="103" x="289.5" y="597"/><rect fill="#FEFECE" height="5" style="stroke: #A80036; stroke-width: 1.5;" width="10" x="284.5" y="602"/><rect fill="#FEFECE" height="5" style="stroke: #A80036; stroke-width: 1.5;" width="10" x="284.5" y="623.2969"/><text fill="#000000" font-family="sans-serif" font-size="14" lengthAdjust="spacingAndGlyphs" textLength="83" x="299.5" y="619.9951">QGIS-Server</text><!--MD5=[729803f0f4fa59db89da46f4a1bf45dc]
entity wmi--><ellipse cx="245" cy="615" fill="#FEFECE" filter="url(#fhcs3m8ffwqwz)" rx="8" ry="8" style="stroke: #A80036; stroke-width: 2.0;"/><text fill="#000000" font-family="sans-serif" font-size="14" lengthAdjust="spacingAndGlyphs" textLength="34" x="228" y="644.9951">WMS</text><!--MD5=[3c719b2ecf74490a70015c1cb66b7fc2]
entity wfi--><ellipse cx="437" cy="615" fill="#FEFECE" filter="url(#fhcs3m8ffwqwz)" rx="8" ry="8" style="stroke: #A80036; stroke-width: 2.0;"/><text fill="#000000" font-family="sans-serif" font-size="14" lengthAdjust="spacingAndGlyphs" textLength="30" x="422" y="644.9951">WFS</text><!--MD5=[94eaaa95e7da89f9f7fc1afc6e0f065a]
entity ctr--><rect fill="#FEFECE" filter="url(#fhcs3m8ffwqwz)" height="36.2969" style="stroke: #A80036; stroke-width: 1.5;" width="87" x="274.5" y="302"/><rect fill="#FEFECE" height="5" style="stroke: #A80036; stroke-width: 1.5;" width="10" x="269.5" y="307"/><rect fill="#FEFECE" height="5" style="stroke: #A80036; stroke-width: 1.5;" width="10" x="269.5" y="328.2969"/><text fill="#000000" font-family="sans-serif" font-size="14" lengthAdjust="spacingAndGlyphs" textLength="67" x="284.5" y="324.9951">Controller</text><!--MD5=[b1d6dc6fe11126b8b4935e99784ce409]
entity sli--><rect fill="#FEFECE" filter="url(#fhcs3m8ffwqwz)" height="36.2969" style="stroke: #A80036; stroke-width: 1.5;" width="123" x="111.5" y="399"/><rect fill="#FEFECE" height="5" style="stroke: #A80036; stroke-width: 1.5;" width="10" x="106.5" y="404"/><rect fill="#FEFECE" height="5" style="stroke: #A80036; stroke-width: 1.5;" width="10" x="106.5" y="425.2969"/><text fill="#000000" font-family="sans-serif" font-size="14" lengthAdjust="spacingAndGlyphs" textLength="103" x="121.5" y="421.9951">SingleLayerInfo</text><!--MD5=[293c3ca832c7a51fd3a58001a1884d35]
entity wi--><rect fill="#FEFECE" filter="url(#fhcs3m8ffwqwz)" height="36.2969" style="stroke: #A80036; stroke-width: 1.5;" width="84" x="185" y="496"/><rect fill="#FEFECE" height="5" style="stroke: #A80036; stroke-width: 1.5;" width="10" x="180" y="501"/><rect fill="#FEFECE" height="5" style="stroke: #A80036; stroke-width: 1.5;" width="10" x="180" y="522.2969"/><text fill="#000000" font-family="sans-serif" font-size="14" lengthAdjust="spacingAndGlyphs" textLength="64" x="195" y="518.9951">WMS-Info</text><!--MD5=[d233812de82a64dd61e181b3fed6b74e]
entity dbq--><rect fill="#FEFECE" filter="url(#fhcs3m8ffwqwz)" height="36.2969" style="stroke: #A80036; stroke-width: 1.5;" width="87" x="62.5" y="496"/><rect fill="#FEFECE" height="5" style="stroke: #A80036; stroke-width: 1.5;" width="10" x="57.5" y="501"/><rect fill="#FEFECE" height="5" style="stroke: #A80036; stroke-width: 1.5;" width="10" x="57.5" y="522.2969"/><text fill="#000000" font-family="sans-serif" font-size="14" lengthAdjust="spacingAndGlyphs" textLength="67" x="72.5" y="518.9951">DB-Query</text><!--MD5=[fd71a720deb277bbd1af72c03fa35a41]
entity py--><rect fill="#FEFECE" filter="url(#fhcs3m8ffwqwz)" height="36.2969" style="stroke: #A80036; stroke-width: 1.5;" width="92" x="304" y="496"/><rect fill="#FEFECE" height="5" style="stroke: #A80036; stroke-width: 1.5;" width="10" x="299" y="501"/><rect fill="#FEFECE" height="5" style="stroke: #A80036; stroke-width: 1.5;" width="10" x="299" y="522.2969"/><text fill="#000000" font-family="sans-serif" font-size="14" lengthAdjust="spacingAndGlyphs" textLength="72" x="314" y="518.9951">Py-Module</text><!--MD5=[814f183d1f2136af94e1191b6b117d8b]
entity rend--><rect fill="#FEFECE" filter="url(#fhcs3m8ffwqwz)" height="36.2969" style="stroke: #A80036; stroke-width: 1.5;" width="123" x="269.5" y="399"/><rect fill="#FEFECE" height="5" style="stroke: #A80036; stroke-width: 1.5;" width="10" x="264.5" y="404"/><rect fill="#FEFECE" height="5" style="stroke: #A80036; stroke-width: 1.5;" width="10" x="264.5" y="425.2969"/><text fill="#000000" font-family="sans-serif" font-size="14" lengthAdjust="spacingAndGlyphs" textLength="103" x="279.5" y="421.9951">HTMLRenderer</text><!--MD5=[0978f1d1852e1818626a53678cd48ddd]
entity am--><rect fill="#FEFECE" filter="url(#fhcs3m8ffwqwz)" height="36.2969" style="stroke: #A80036; stroke-width: 1.5;" width="57" x="388.5" y="150.5"/><rect fill="#FEFECE" height="5" style="stroke: #A80036; stroke-width: 1.5;" width="10" x="383.5" y="155.5"/><rect fill="#FEFECE" height="5" style="stroke: #A80036; stroke-width: 1.5;" width="10" x="383.5" y="176.7969"/><text fill="#000000" font-family="sans-serif" font-size="14" lengthAdjust="spacingAndGlyphs" textLength="37" x="398.5" y="173.4951">Proxy</text><!--MD5=[4a5f9ee0966c140fc9de7c6817a8026b]
entity ami--><ellipse cx="344" cy="168.5" fill="#FEFECE" filter="url(#fhcs3m8ffwqwz)" rx="8" ry="8" style="stroke: #A80036; stroke-width: 2.0;"/><text fill="#000000" font-family="sans-serif" font-size="14" lengthAdjust="spacingAndGlyphs" textLength="37" x="325.5" y="198.4951">HTTP</text><!--MD5=[6857688d619609624168cacb5f029075]
entity ps--><rect fill="#FEFECE" filter="url(#fhcs3m8ffwqwz)" height="36.2969" style="stroke: #A80036; stroke-width: 1.5;" width="150" x="502" y="302"/><rect fill="#FEFECE" height="5" style="stroke: #A80036; stroke-width: 1.5;" width="10" x="497" y="307"/><rect fill="#FEFECE" height="5" style="stroke: #A80036; stroke-width: 1.5;" width="10" x="497" y="328.2969"/><text fill="#000000" font-family="sans-serif" font-size="14" lengthAdjust="spacingAndGlyphs" textLength="130" x="512" y="324.9951">Permission Service</text><!--MD5=[597be0cb6d297b3cdca9a72786000b3c]
entity psi--><ellipse cx="696" cy="320" fill="#FEFECE" filter="url(#fhcs3m8ffwqwz)" rx="8" ry="8" style="stroke: #A80036; stroke-width: 2.0;"/><text fill="#000000" font-family="sans-serif" font-size="14" lengthAdjust="spacingAndGlyphs" textLength="37" x="677.5" y="349.9951">HTTP</text><!--MD5=[979c31051cf8d07bdf927ed864b836ec]
entity cl--><rect fill="#FEFECE" filter="url(#fhcs3m8ffwqwz)" height="36.2969" style="stroke: #A80036; stroke-width: 1.5;" width="59" x="314.5" y="8.5"/><rect fill="#FEFECE" height="5" style="stroke: #A80036; stroke-width: 1.5;" width="10" x="309.5" y="13.5"/><rect fill="#FEFECE" height="5" style="stroke: #A80036; stroke-width: 1.5;" width="10" x="309.5" y="34.7969"/><text fill="#000000" font-family="sans-serif" font-size="14" lengthAdjust="spacingAndGlyphs" textLength="39" x="324.5" y="31.4951">Client</text><!--MD5=[c79388d7ef4ae2b4d9d76db5dc1a13e5]
link ps to psi--><path d="M652.305,320 C663.797,320 675.29,320 686.783,320 " fill="none" id="ps-psi" style="stroke: #A80036; stroke-width: 1.0;"/><!--MD5=[2c34550376c74c28dd76206949d469dd]
link qs to wfi--><path d="M392.75,615 C404.389,615 416.027,615 427.666,615 " fill="none" id="qs-wfi" style="stroke: #A80036; stroke-width: 1.0;"/><!--MD5=[f2d14b7760171643ef0df83b6896308f]
link wmi to qs--><path d="M254.375,615 C265.993,615 277.61,615 289.228,615 " fill="none" id="wmi-qs" style="stroke: #A80036; stroke-width: 1.0;"/><!--MD5=[3b79f5ed3ea560664d21558b403b8deb]
link qs to data--><path d="M327.167,633.101 C303.787,662.003 256.525,720.429 231.104,751.8559 " fill="none" id="qs-&gt;data" style="stroke: #A80036; stroke-width: 1.0;"/><polygon fill="#A80036" points="227.816,755.9205,236.5863,751.4391,230.9607,752.0332,230.3666,746.4076,227.816,755.9205" style="stroke: #A80036; stroke-width: 1.0;"/><!--MD5=[158be1649135d2a07391ae17953b0283]
link qs to config--><path d="M347.535,633.101 C358.491,661.767 380.545,719.477 392.623,751.0809 " fill="none" id="qs-&gt;config" style="stroke: #A80036; stroke-width: 1.0;"/><polygon fill="#A80036" points="394.473,755.9205,394.9961,746.0855,392.6878,751.25,387.5233,748.9418,394.473,755.9205" style="stroke: #A80036; stroke-width: 1.0;"/><!--MD5=[50daf3b06110856eecf149977465bd85]
link ctr to sli--><path d="M291.742,338.204 C266.9,354.479 229.627,378.9 203.484,396.028 " fill="none" id="ctr-&gt;sli" style="stroke: #A80036; stroke-width: 1.0;"/><polygon fill="#A80036" points="199.063,398.924,208.7834,397.3384,203.2455,396.1842,204.3997,390.6464,199.063,398.924" style="stroke: #A80036; stroke-width: 1.0;"/><!--MD5=[e3f1964dd93cdeb6abde15f2d59c838c]
link ctr to rend--><path d="M320.384,338.424 C322.51,353.959 325.633,376.783 327.942,393.655 " fill="none" id="ctr-&gt;rend" style="stroke: #A80036; stroke-width: 1.0;"/><polygon fill="#A80036" points="328.631,398.686,331.3754,389.2272,327.9539,393.7321,323.4491,390.3106,328.631,398.686" style="stroke: #A80036; stroke-width: 1.0;"/><!--MD5=[f80cac45fccba97ef76edde74952a6cf]
link ctr to config--><path d="M361.726,322.498 C421.932,327.161 523,345.491 523,416 C523,416 523,416 523,616 C523,676.039 466.685,726.9667 430.577,753.45 " fill="none" id="ctr-&gt;config" style="stroke: #A80036; stroke-width: 1.0;"/><polygon fill="#A80036" points="426.278,756.5574,435.9149,754.5251,430.3297,753.6276,431.2272,748.0424,426.278,756.5574" style="stroke: #A80036; stroke-width: 1.0;"/><!--MD5=[aa44eb0eef38d104625e298df1e774da]
reverse link sli to wi--><path d="M192.93,453.061 C201.189,467.592 210.399,483.794 217.158,495.686 " fill="none" id="sli&lt;-wi" style="stroke: #A80036; stroke-width: 1.0;"/><polygon fill="none" points="186.702,456.271,182.904,435.424,198.873,449.353,186.702,456.271" style="stroke: #A80036; stroke-width: 1.0;"/><!--MD5=[de0e69861d9d0eff893663ca6ab8e342]
reverse link sli to dbq--><path d="M148.962,452.084 C138.539,466.862 126.786,483.527 118.211,495.686 " fill="none" id="sli&lt;-dbq" style="stroke: #A80036; stroke-width: 1.0;"/><polygon fill="none" points="143.464,447.734,160.711,435.424,154.905,455.803,143.464,447.734" style="stroke: #A80036; stroke-width: 1.0;"/><!--MD5=[cefc41e79b524ba7b0791a87fc66fc39]
reverse link sli to py--><path d="M222.926,444.796 C253.492,461.202 291.69,481.704 318.185,495.924 " fill="none" id="sli&lt;-py" style="stroke: #A80036; stroke-width: 1.0;"/><polygon fill="none" points="219.365,450.83,205.053,435.204,225.986,438.494,219.365,450.83" style="stroke: #A80036; stroke-width: 1.0;"/><!--MD5=[597807bf2d24a4e29c8674c68e31b2b1]
link wi to wmi--><path d="M230.135,532.244 C233.677,551.724 239.365,583.008 242.581,600.695 " fill="none" id="wi-&gt;wmi" style="stroke: #A80036; stroke-width: 1.0;"/><polygon fill="#A80036" points="243.494,605.719,245.82,596.1487,242.5998,600.7996,237.949,597.5794,243.494,605.719" style="stroke: #A80036; stroke-width: 1.0;"/><!--MD5=[8a399f6eb563408585338b62db80a9be]
link dbq to data--><path d="M113.254,532.329 C132.314,577.86 183.786,700.821 204.837,751.1118 " fill="none" id="dbq-&gt;data" style="stroke: #A80036; stroke-width: 1.0;"/><polygon fill="#A80036" points="206.778,755.7467,206.9916,745.9002,204.8469,751.1347,199.6124,748.9899,206.778,755.7467" style="stroke: #A80036; stroke-width: 1.0;"/><!--MD5=[f60400eb496185d90d7608cd342626f2]
link ami to am--><path d="M353.125,168.5 C364.769,168.5 376.413,168.5 388.057,168.5 " fill="none" id="ami-am" style="stroke: #A80036; stroke-width: 1.0;"/><!--MD5=[df0695c53588dada3893bda42a91fb95]
link am to psi--><path d="M445.874,172.235 C497.269,178.555 605.286,198.598 670,259 C683.481,271.583 690.322,292.355 693.522,305.857 " fill="none" id="am-&gt;psi" style="stroke: #A80036; stroke-width: 1.0;"/><polygon fill="#A80036" points="694.611,310.814,696.5864,301.1653,693.538,305.9305,688.7728,302.8821,694.611,310.814" style="stroke: #A80036; stroke-width: 1.0;"/><!--MD5=[8100bfba517f05c4a0933ac60d7a96da]
link am to wmi--><path d="M423.974,186.627 C447.48,247.44 516.655,454.744 412,556 C366.953,599.583 325.283,539.991 272,573 C261.511,579.498 254.251,591.758 249.922,601.185 " fill="none" id="am-&gt;wmi" style="stroke: #A80036; stroke-width: 1.0;"/><polygon fill="#A80036" points="247.924,605.811,255.1652,599.1353,249.9069,601.221,247.8211,595.9627,247.924,605.811" style="stroke: #A80036; stroke-width: 1.0;"/><!--MD5=[0ab118a858eb727136b42c9c0596638e]
link am to wfi--><path d="M419.218,186.716 C420.805,199.691 422.855,217.934 424,234 C434.235,377.602 436.466,552.325 436.903,600.919 " fill="none" id="am-&gt;wfi" style="stroke: #A80036; stroke-width: 1.0;"/><polygon fill="#A80036" points="436.945,605.966,440.8677,596.932,436.9021,600.9662,432.868,597.0006,436.945,605.966" style="stroke: #A80036; stroke-width: 1.0;"/><!--MD5=[828530bee519d228cdf603e58aedf98a]
link am to ctr--><path d="M400.258,186.593 C391.743,194.61 380.905,203.841 370,210.5 C345.91,225.209 326.841,210.639 311,234 C298.543,252.371 303.075,278.373 308.971,296.77 " fill="none" id="am-&gt;ctr" style="stroke: #A80036; stroke-width: 1.0;"/><polygon fill="#A80036" points="310.657,301.744,311.5543,291.9361,309.051,297.0089,303.9782,294.5057,310.657,301.744" style="stroke: #A80036; stroke-width: 1.0;"/><text fill="#000000" font-family="sans-serif" font-size="13" lengthAdjust="spacingAndGlyphs" textLength="107" x="312" y="247.0669">WMS FeatureInfo</text><!--MD5=[e5e923cdb7c8d476c21e3c850c02dd7d]
link am to GMN43--><path d="M412.491,150.427 C403.088,117.073 378.682,50.422 336.5,64 C294.462,77.532 254.292,108.204 226.853,132.838 " fill="none" id="am-GMN43" style="stroke: #A80036; stroke-width: 1.0; stroke-dasharray: 7.0,7.0;"/><!--MD5=[08d60bb8b31c952319edcc892a3a4a31]
link cl to ami--><path d="M344,44.667 C344,72.906 344,128.57 344,154.114 " fill="none" id="cl-&gt;ami" style="stroke: #A80036; stroke-width: 1.0;"/><polygon fill="#A80036" points="344,159.368,348,150.368,344,154.368,340,150.368,344,159.368" style="stroke: #A80036; stroke-width: 1.0;"/><!--MD5=[545411dd511749d27a553085732fc96f]
@startuml
[Permission Service] as ps
() HTTP as psi
ps - psi
 
database "Config-DB" {
  [data] as config
}

database "Geo-DB" {
  [data] as data
}

package "QGIS as OGC Server"{

  together {
  [QGIS-Server] as qs
  () WMS as wmi
  () WFS as wfi
  qs - wfi
  wmi - qs
  qs - -> data
  qs - -> config
  }
  

  package "WMS Feature Info" {
  	[Controller] as ctr
    [SingleLayerInfo] as sli
    [WMS-Info] as wi
    [DB-Query] as dbq
    [Py-Module] as py
    [HTMLRenderer] as rend
    
    ctr - -> sli
    ctr - -> rend
    ctr - -> config
    sli <|- - wi
    sli <|- - dbq
    sli <|- - py
    wi - -> wmi
    dbq - -> data
  }
  
  
  together {
  [Proxy] as am
  () HTTP as ami
  ami - am
  am - -> psi   
  am - -> wmi
  am - -> wfi
  am - -> ctr : WMS FeatureInfo
  }
  
  note right of am
	Proxy (OGC-Service) macht 
    access management sowie 
    Strukturumbau bei 
    WMS-Aufruf (Facadelayer, ...)
  end note
  
}





[Client] as cl
cl - -> ami
@enduml

PlantUML version 1.2019.13(Tue Dec 10 17:18:29 UTC 2019)
(GPL source distribution)
Java Runtime: OpenJDK Runtime Environment
JVM: OpenJDK 64-Bit Server VM
Java Version: 1.8.0_232-b09
Operating System: Linux
Default Encoding: ANSI_X3.4-1968
Language: en
Country: US
--></g></svg>