<?xml version="1.0" encoding="UTF-8" standalone="no"?><svg xmlns="http://www.w3.org/2000/svg" xmlns:xlink="http://www.w3.org/1999/xlink" contentScriptType="application/ecmascript" contentStyleType="text/css" height="1547px" preserveAspectRatio="none" style="width:726px;height:1547px;" version="1.1" viewBox="0 0 726 1547" width="726px" zoomAndPan="magnify"><defs><filter height="300%" id="f15fc6w7l2pqp" width="300%" x="-1" y="-1"><feGaussianBlur result="blurOut" stdDeviation="2.0"/><feColorMatrix in="blurOut" result="blurOut2" type="matrix" values="0 0 0 0 0 0 0 0 0 0 0 0 0 0 0 0 0 0 .4 0"/><feOffset dx="4.0" dy="4.0" in="blurOut2" result="blurOut3"/><feBlend in="SourceGraphic" in2="blurOut3" mode="normal"/></filter></defs><g><!--MD5=[9a2e14545ff35eb8fb8c7a6692523083]
cluster Config-DB--><path d="M427,1459 C427,1449 474,1449 474,1449 C474,1449 521,1449 521,1459 L521,1525 C521,1535 474,1535 474,1535 C474,1535 427,1535 427,1525 L427,1459 " fill="#FFFFFF" filter="url(#f15fc6w7l2pqp)" style="stroke: #000000; stroke-width: 1.5;"/><path d="M427,1459 C427,1469 474,1469 474,1469 C474,1469 521,1469 521,1459 " fill="none" style="stroke: #000000; stroke-width: 1.5;"/><text fill="#000000" font-family="sans-serif" font-size="14" font-weight="bold" lengthAdjust="spacingAndGlyphs" textLength="78" x="435" y="1483.9951">Config-DB</text><!--MD5=[3a337bb9fa499dcfc2248c91a2444cbc]
cluster Geo-DB--><path d="M170,1459 C170,1449 207.5,1449 207.5,1449 C207.5,1449 245,1449 245,1459 L245,1525 C245,1535 207.5,1535 207.5,1535 C207.5,1535 170,1535 170,1525 L170,1459 " fill="#FFFFFF" filter="url(#f15fc6w7l2pqp)" style="stroke: #000000; stroke-width: 1.5;"/><path d="M170,1459 C170,1469 207.5,1469 207.5,1469 C207.5,1469 245,1469 245,1459 " fill="none" style="stroke: #000000; stroke-width: 1.5;"/><text fill="#000000" font-family="sans-serif" font-size="14" font-weight="bold" lengthAdjust="spacingAndGlyphs" textLength="59" x="178" y="1483.9951">Geo-DB</text><!--MD5=[8e2413e6c4d4e01905fdddcd4669f29c]
cluster QGIS as OGC Server--><polygon fill="#FFFFFF" filter="url(#f15fc6w7l2pqp)" points="51,83,216,83,223,105.2969,475,105.2969,475,1426,51,1426,51,83" style="stroke: #000000; stroke-width: 1.5;"/><line style="stroke: #000000; stroke-width: 1.5;" x1="51" x2="223" y1="105.2969" y2="105.2969"/><text fill="#000000" font-family="sans-serif" font-size="14" font-weight="bold" lengthAdjust="spacingAndGlyphs" textLength="159" x="55" y="97.9951">QGIS as OGC Server</text><!--MD5=[1ae8f8ef0c5cd9e3d1d9f230a222b64c]
cluster WMS Feature Info--><polygon fill="#FFFFFF" filter="url(#f15fc6w7l2pqp)" points="88,317,233,317,240,339.2969,438,339.2969,438,954,88,954,88,317" style="stroke: #000000; stroke-width: 1.5;"/><line style="stroke: #000000; stroke-width: 1.5;" x1="88" x2="240" y1="339.2969" y2="339.2969"/><text fill="#000000" font-family="sans-serif" font-size="14" font-weight="bold" lengthAdjust="spacingAndGlyphs" textLength="139" x="92" y="331.9951">WMS Feature Info</text><!--MD5=[caf660ac2a54b55a5c31b5515889e628]
entity config--><rect fill="#FEFECE" filter="url(#f15fc6w7l2pqp)" height="36.2969" style="stroke: #A80036; stroke-width: 1.5;" width="50" x="449" y="1491"/><rect fill="#FEFECE" height="5" style="stroke: #A80036; stroke-width: 1.5;" width="10" x="444" y="1496"/><rect fill="#FEFECE" height="5" style="stroke: #A80036; stroke-width: 1.5;" width="10" x="444" y="1517.2969"/><text fill="#000000" font-family="sans-serif" font-size="14" lengthAdjust="spacingAndGlyphs" textLength="30" x="459" y="1513.9951">data</text><!--MD5=[703ea5a149c5871c74522bf38bdfe548]
entity data--><rect fill="#FEFECE" filter="url(#f15fc6w7l2pqp)" height="36.2969" style="stroke: #A80036; stroke-width: 1.5;" width="50" x="182" y="1491"/><rect fill="#FEFECE" height="5" style="stroke: #A80036; stroke-width: 1.5;" width="10" x="177" y="1496"/><rect fill="#FEFECE" height="5" style="stroke: #A80036; stroke-width: 1.5;" width="10" x="177" y="1517.2969"/><text fill="#000000" font-family="sans-serif" font-size="14" lengthAdjust="spacingAndGlyphs" textLength="30" x="192" y="1513.9951">data</text><path d="M77,110 L77,180.5313 L295,180.5313 L295,120 L285,110 L77,110 " fill="#FBFB77" filter="url(#f15fc6w7l2pqp)" style="stroke: #A80036; stroke-width: 1.0;"/><path d="M285,110 L285,120 L295,120 L285,110 " fill="#FBFB77" style="stroke: #A80036; stroke-width: 1.0;"/><text fill="#000000" font-family="sans-serif" font-size="13" lengthAdjust="spacingAndGlyphs" textLength="175" x="83" y="127.0669">Proxy (OGC-Service) macht</text><text fill="#000000" font-family="sans-serif" font-size="13" lengthAdjust="spacingAndGlyphs" textLength="174" x="95" y="142.1997">access management sowie</text><text fill="#000000" font-family="sans-serif" font-size="13" lengthAdjust="spacingAndGlyphs" textLength="120" x="95" y="157.3325">Strukturumbau bei</text><text fill="#000000" font-family="sans-serif" font-size="13" lengthAdjust="spacingAndGlyphs" textLength="185" x="95" y="172.4653">WMS-Aufruf (Facadelayer, ...)</text><!--MD5=[77deed6ead6ed69359d7d86334611f48]
entity qs--><rect fill="#FEFECE" filter="url(#f15fc6w7l2pqp)" height="36.2969" style="stroke: #A80036; stroke-width: 1.5;" width="103" x="260.5" y="1374"/><rect fill="#FEFECE" height="5" style="stroke: #A80036; stroke-width: 1.5;" width="10" x="255.5" y="1379"/><rect fill="#FEFECE" height="5" style="stroke: #A80036; stroke-width: 1.5;" width="10" x="255.5" y="1400.2969"/><text fill="#000000" font-family="sans-serif" font-size="14" lengthAdjust="spacingAndGlyphs" textLength="83" x="270.5" y="1396.9951">QGIS-Server</text><!--MD5=[729803f0f4fa59db89da46f4a1bf45dc]
entity wmi--><ellipse cx="261" cy="1098" fill="#FEFECE" filter="url(#f15fc6w7l2pqp)" rx="8" ry="8" style="stroke: #A80036; stroke-width: 2.0;"/><text fill="#000000" font-family="sans-serif" font-size="14" lengthAdjust="spacingAndGlyphs" textLength="34" x="244" y="1127.9951">WMS</text><!--MD5=[3c719b2ecf74490a70015c1cb66b7fc2]
entity wfi--><ellipse cx="350" cy="1098" fill="#FEFECE" filter="url(#f15fc6w7l2pqp)" rx="8" ry="8" style="stroke: #A80036; stroke-width: 2.0;"/><text fill="#000000" font-family="sans-serif" font-size="14" lengthAdjust="spacingAndGlyphs" textLength="30" x="335" y="1127.9951">WFS</text><!--MD5=[94eaaa95e7da89f9f7fc1afc6e0f065a]
entity ctr--><rect fill="#FEFECE" filter="url(#f15fc6w7l2pqp)" height="36.2969" style="stroke: #A80036; stroke-width: 1.5;" width="87" x="300.5" y="344"/><rect fill="#FEFECE" height="5" style="stroke: #A80036; stroke-width: 1.5;" width="10" x="295.5" y="349"/><rect fill="#FEFECE" height="5" style="stroke: #A80036; stroke-width: 1.5;" width="10" x="295.5" y="370.2969"/><text fill="#000000" font-family="sans-serif" font-size="14" lengthAdjust="spacingAndGlyphs" textLength="67" x="310.5" y="366.9951">Controller</text><!--MD5=[b1d6dc6fe11126b8b4935e99784ce409]
entity sli--><rect fill="#FEFECE" filter="url(#f15fc6w7l2pqp)" height="36.2969" style="stroke: #A80036; stroke-width: 1.5;" width="123" x="148.5" y="627"/><rect fill="#FEFECE" height="5" style="stroke: #A80036; stroke-width: 1.5;" width="10" x="143.5" y="632"/><rect fill="#FEFECE" height="5" style="stroke: #A80036; stroke-width: 1.5;" width="10" x="143.5" y="653.2969"/><text fill="#000000" font-family="sans-serif" font-size="14" lengthAdjust="spacingAndGlyphs" textLength="103" x="158.5" y="649.9951">SingleLayerInfo</text><!--MD5=[293c3ca832c7a51fd3a58001a1884d35]
entity wi--><rect fill="#FEFECE" filter="url(#f15fc6w7l2pqp)" height="36.2969" style="stroke: #A80036; stroke-width: 1.5;" width="84" x="219" y="910"/><rect fill="#FEFECE" height="5" style="stroke: #A80036; stroke-width: 1.5;" width="10" x="214" y="915"/><rect fill="#FEFECE" height="5" style="stroke: #A80036; stroke-width: 1.5;" width="10" x="214" y="936.2969"/><text fill="#000000" font-family="sans-serif" font-size="14" lengthAdjust="spacingAndGlyphs" textLength="64" x="229" y="932.9951">WMS-Info</text><!--MD5=[d233812de82a64dd61e181b3fed6b74e]
entity dbq--><rect fill="#FEFECE" filter="url(#f15fc6w7l2pqp)" height="36.2969" style="stroke: #A80036; stroke-width: 1.5;" width="87" x="96.5" y="910"/><rect fill="#FEFECE" height="5" style="stroke: #A80036; stroke-width: 1.5;" width="10" x="91.5" y="915"/><rect fill="#FEFECE" height="5" style="stroke: #A80036; stroke-width: 1.5;" width="10" x="91.5" y="936.2969"/><text fill="#000000" font-family="sans-serif" font-size="14" lengthAdjust="spacingAndGlyphs" textLength="67" x="106.5" y="932.9951">DB-Query</text><!--MD5=[fd71a720deb277bbd1af72c03fa35a41]
entity py--><rect fill="#FEFECE" filter="url(#f15fc6w7l2pqp)" height="36.2969" style="stroke: #A80036; stroke-width: 1.5;" width="92" x="338" y="910"/><rect fill="#FEFECE" height="5" style="stroke: #A80036; stroke-width: 1.5;" width="10" x="333" y="915"/><rect fill="#FEFECE" height="5" style="stroke: #A80036; stroke-width: 1.5;" width="10" x="333" y="936.2969"/><text fill="#000000" font-family="sans-serif" font-size="14" lengthAdjust="spacingAndGlyphs" textLength="72" x="348" y="932.9951">Py-Module</text><!--MD5=[814f183d1f2136af94e1191b6b117d8b]
entity rend--><rect fill="#FEFECE" filter="url(#f15fc6w7l2pqp)" height="36.2969" style="stroke: #A80036; stroke-width: 1.5;" width="123" x="306.5" y="627"/><rect fill="#FEFECE" height="5" style="stroke: #A80036; stroke-width: 1.5;" width="10" x="301.5" y="632"/><rect fill="#FEFECE" height="5" style="stroke: #A80036; stroke-width: 1.5;" width="10" x="301.5" y="653.2969"/><text fill="#000000" font-family="sans-serif" font-size="14" lengthAdjust="spacingAndGlyphs" textLength="103" x="316.5" y="649.9951">HTMLRenderer</text><!--MD5=[0978f1d1852e1818626a53678cd48ddd]
entity am--><rect fill="#FEFECE" filter="url(#f15fc6w7l2pqp)" height="36.2969" style="stroke: #A80036; stroke-width: 1.5;" width="57" x="383.5" y="127.5"/><rect fill="#FEFECE" height="5" style="stroke: #A80036; stroke-width: 1.5;" width="10" x="378.5" y="132.5"/><rect fill="#FEFECE" height="5" style="stroke: #A80036; stroke-width: 1.5;" width="10" x="378.5" y="153.7969"/><text fill="#000000" font-family="sans-serif" font-size="14" lengthAdjust="spacingAndGlyphs" textLength="37" x="393.5" y="150.4951">Proxy</text><!--MD5=[4a5f9ee0966c140fc9de7c6817a8026b]
entity ami--><ellipse cx="339" cy="145.5" fill="#FEFECE" filter="url(#f15fc6w7l2pqp)" rx="8" ry="8" style="stroke: #A80036; stroke-width: 2.0;"/><text fill="#000000" font-family="sans-serif" font-size="14" lengthAdjust="spacingAndGlyphs" textLength="37" x="320.5" y="175.4951">HTTP</text><!--MD5=[6857688d619609624168cacb5f029075]
entity ps--><rect fill="#FEFECE" filter="url(#f15fc6w7l2pqp)" height="36.2969" style="stroke: #A80036; stroke-width: 1.5;" width="150" x="502" y="242"/><rect fill="#FEFECE" height="5" style="stroke: #A80036; stroke-width: 1.5;" width="10" x="497" y="247"/><rect fill="#FEFECE" height="5" style="stroke: #A80036; stroke-width: 1.5;" width="10" x="497" y="268.2969"/><text fill="#000000" font-family="sans-serif" font-size="14" lengthAdjust="spacingAndGlyphs" textLength="130" x="512" y="264.9951">Permission Service</text><!--MD5=[597be0cb6d297b3cdca9a72786000b3c]
entity psi--><ellipse cx="696" cy="260" fill="#FEFECE" filter="url(#f15fc6w7l2pqp)" rx="8" ry="8" style="stroke: #A80036; stroke-width: 2.0;"/><text fill="#000000" font-family="sans-serif" font-size="14" lengthAdjust="spacingAndGlyphs" textLength="37" x="677.5" y="289.9951">HTTP</text><!--MD5=[979c31051cf8d07bdf927ed864b836ec]
entity cl--><rect fill="#FEFECE" filter="url(#f15fc6w7l2pqp)" height="36.2969" style="stroke: #A80036; stroke-width: 1.5;" width="59" x="309.5" y="8"/><rect fill="#FEFECE" height="5" style="stroke: #A80036; stroke-width: 1.5;" width="10" x="304.5" y="13"/><rect fill="#FEFECE" height="5" style="stroke: #A80036; stroke-width: 1.5;" width="10" x="304.5" y="34.2969"/><text fill="#000000" font-family="sans-serif" font-size="14" lengthAdjust="spacingAndGlyphs" textLength="39" x="319.5" y="30.9951">Client</text><!--MD5=[c79388d7ef4ae2b4d9d76db5dc1a13e5]
link ps to psi--><path d="M652.3047,260 C663.7975,260 675.2902,260 686.783,260 " fill="none" id="ps-psi" style="stroke: #A80036; stroke-width: 1.0;"/><!--MD5=[b575df255c5e0c79bdae3fa126b98ec2]
link wfi to qs--><path d="M345.5895,1107.0032 C338.1715,1122.9998 324,1157.6035 324,1188.5 C324,1188.5 324,1188.5 324,1312.5 C324,1333.7168 319.7695,1357.7655 316.3323,1373.8035 " fill="none" id="wfi-qs" style="stroke: #A80036; stroke-width: 1.0;"/><!--MD5=[f2d14b7760171643ef0df83b6896308f]
link wmi to qs--><path d="M263.2053,1107.1874 C266.9142,1123.469 274,1158.4999 274,1188.5 C274,1188.5 274,1188.5 274,1312.5 C274,1335.2936 286.8729,1358.4855 297.6338,1373.8905 " fill="none" id="wmi-qs" style="stroke: #A80036; stroke-width: 1.0;"/><!--MD5=[3b79f5ed3ea560664d21558b403b8deb]
link qs to data--><path d="M295.8239,1410.0248 C277.2259,1430.7483 246.6994,1464.7635 226.724,1487.0218 " fill="none" id="qs-&gt;data" style="stroke: #A80036; stroke-width: 1.0;"/><polygon fill="#A80036" points="223.3675,1490.7619,232.3557,1486.7355,226.7071,1487.0407,226.4018,1481.3921,223.3675,1490.7619" style="stroke: #A80036; stroke-width: 1.0;"/><!--MD5=[158be1649135d2a07391ae17953b0283]
link qs to config--><path d="M336.9575,1410.0248 C365.9733,1430.9807 413.8079,1465.528 444.5991,1487.766 " fill="none" id="qs-&gt;config" style="stroke: #A80036; stroke-width: 1.0;"/><polygon fill="#A80036" points="449.0142,1490.9547,444.0602,1482.4425,444.9608,1488.0272,439.3762,1488.9279,449.0142,1490.9547" style="stroke: #A80036; stroke-width: 1.0;"/><!--MD5=[50daf3b06110856eecf149977465bd85]
link ctr to sli--><path d="M304.5238,380.0958 C281.9159,393.4437 258,414.0508 258,441.5 C258,441.5 258,441.5 258,565.5 C258,587.1636 244.7765,607.9875 232.2107,622.885 " fill="none" id="ctr-&gt;sli" style="stroke: #A80036; stroke-width: 1.0;"/><polygon fill="#A80036" points="228.6955,626.9255,237.6206,622.7611,231.9774,623.1533,231.5851,617.5101,228.6955,626.9255" style="stroke: #A80036; stroke-width: 1.0;"/><!--MD5=[e3f1964dd93cdeb6abde15f2d59c838c]
link ctr to rend--><path d="M348.3323,380.1965 C351.7695,396.2345 356,420.2832 356,441.5 C356,441.5 356,441.5 356,565.5 C356,584.562 359.4148,605.9098 362.6012,621.6804 " fill="none" id="ctr-&gt;rend" style="stroke: #A80036; stroke-width: 1.0;"/><polygon fill="#A80036" points="363.6677,626.8035,365.7493,617.1771,362.6486,621.9085,357.9172,618.8078,363.6677,626.8035" style="stroke: #A80036; stroke-width: 1.0;"/><!--MD5=[f80cac45fccba97ef76edde74952a6cf]
link ctr to config--><path d="M387.5056,372.5058 C439.6243,386.388 520,412.4981 520,441.5 C520,441.5 520,441.5 520,1392 C520,1426.7852 502.1714,1463.6055 488.7128,1486.445 " fill="none" id="ctr-&gt;config" style="stroke: #A80036; stroke-width: 1.0;"/><polygon fill="#A80036" points="486.086,1490.8217,494.1473,1485.1634,488.6591,1486.5346,487.2879,1481.0465,486.086,1490.8217" style="stroke: #A80036; stroke-width: 1.0;"/><!--MD5=[aa44eb0eef38d104625e298df1e774da]
reverse link sli to wi--><path d="M226.6623,681.8281 C231.2541,695.013 235,710.1627 235,724.5 C235,724.5 235,724.5 235,848.5 C235,870.4274 244.0458,894.1466 251.4662,909.915 " fill="none" id="sli&lt;-wi" style="stroke: #A80036; stroke-width: 1.0;"/><polygon fill="none" points="220.1094,684.2941,219.1671,663.1254,233.1047,679.0861,220.1094,684.2941" style="stroke: #A80036; stroke-width: 1.0;"/><!--MD5=[de0e69861d9d0eff893663ca6ab8e342]
reverse link sli to dbq--><path d="M174.8724,678.2369 C164.5648,691.4184 156,707.4892 156,724.5 C156,724.5 156,724.5 156,848.5 C156,869.8998 150.3594,893.9142 145.7764,909.8941 " fill="none" id="sli&lt;-dbq" style="stroke: #A80036; stroke-width: 1.0;"/><polygon fill="none" points="169.7758,673.4355,188.3473,663.2324,180.192,682.7898,169.7758,673.4355" style="stroke: #A80036; stroke-width: 1.0;"/><!--MD5=[cefc41e79b524ba7b0791a87fc66fc39]
reverse link sli to py--><path d="M290.3657,665.4568 C317.0098,677.4334 340,696.0193 340,724.5 C340,724.5 340,724.5 340,848.5 C340,871.847 354.7061,894.7702 367.1143,909.9564 " fill="none" id="sli&lt;-py" style="stroke: #A80036; stroke-width: 1.0;"/><polygon fill="none" points="287.6971,671.9299,271.5737,658.1808,292.752,658.8744,287.6971,671.9299" style="stroke: #A80036; stroke-width: 1.0;"/><!--MD5=[597807bf2d24a4e29c8674c68e31b2b1]
link wi to wmi--><path d="M261,946.193 C261,980.2214 261,1052.8397 261,1083.675 " fill="none" id="wi-&gt;wmi" style="stroke: #A80036; stroke-width: 1.0;"/><polygon fill="#A80036" points="261,1088.9277,265,1079.9277,261,1083.9277,257,1079.9277,261,1088.9277" style="stroke: #A80036; stroke-width: 1.0;"/><!--MD5=[8a399f6eb563408585338b62db80a9be]
link dbq to data--><path d="M96.494,935.1541 C57.3669,944.3667 6,964.6256 6,1007.5 C6,1007.5 6,1007.5 6,1392 C6,1470.0352 120.558,1496.929 176.7043,1505.4238 " fill="none" id="dbq-&gt;data" style="stroke: #A80036; stroke-width: 1.0;"/><polygon fill="#A80036" points="181.9496,1506.1895,173.622,1500.9311,177.0021,1505.4671,172.4661,1508.8472,181.9496,1506.1895" style="stroke: #A80036; stroke-width: 1.0;"/><!--MD5=[f60400eb496185d90d7608cd342626f2]
link ami to am--><path d="M348.125,145.5 C359.7689,145.5 371.4128,145.5 383.0566,145.5 " fill="none" id="ami-am" style="stroke: #A80036; stroke-width: 1.0;"/><!--MD5=[df0695c53588dada3893bda42a91fb95]
link am to psi--><path d="M440.8533,153.7223 C489.6143,168.174 590.7498,200.5668 670,242 C674.2875,244.2416 678.7042,247.0729 682.653,249.8223 " fill="none" id="am-&gt;psi" style="stroke: #A80036; stroke-width: 1.0;"/><polygon fill="#A80036" points="686.726,252.7417,681.7415,244.2473,682.6622,249.8287,677.0808,250.7494,686.726,252.7417" style="stroke: #A80036; stroke-width: 1.0;"/><!--MD5=[8100bfba517f05c4a0933ac60d7a96da]
link am to wmi--><path d="M392.1229,163.6751 C384.4229,169.9244 375.2428,176.4785 366,181 C239.8286,242.7217 60,119.5408 60,260 C60,260 60,260 60,1007.5 C60,1048.504 200.8368,1084.2734 246.7308,1094.841 " fill="none" id="am-&gt;wmi" style="stroke: #A80036; stroke-width: 1.0;"/><polygon fill="#A80036" points="251.8411,1096.0034,243.9526,1090.1066,246.9657,1094.8943,242.178,1097.9073,251.8411,1096.0034" style="stroke: #A80036; stroke-width: 1.0;"/><!--MD5=[0ab118a858eb727136b42c9c0596638e]
link am to wfi--><path d="M426.7557,163.6985 C442.7441,185.3041 466,223.0765 466,260 C466,260 466,260 466,1007.5 C466,1058.6894 394.9113,1085.1943 364.0356,1094.292 " fill="none" id="am-&gt;wfi" style="stroke: #A80036; stroke-width: 1.0;"/><polygon fill="#A80036" points="359.1023,1095.6976,368.8539,1097.0782,363.9109,1094.3274,366.6617,1089.3844,359.1023,1095.6976" style="stroke: #A80036; stroke-width: 1.0;"/><!--MD5=[828530bee519d228cdf603e58aedf98a]
link am to ctr--><path d="M395.2968,163.7969 C379.7851,182.0779 357.6733,211.7459 348,242 C337.6282,274.4384 338.8658,314.3482 341.1189,338.9809 " fill="none" id="am-&gt;ctr" style="stroke: #A80036; stroke-width: 1.0;"/><polygon fill="#A80036" points="341.6113,343.9972,344.7127,334.6494,341.1227,339.0211,336.751,335.4311,341.6113,343.9972" style="stroke: #A80036; stroke-width: 1.0;"/><text fill="#000000" font-family="sans-serif" font-size="13" lengthAdjust="spacingAndGlyphs" textLength="107" x="349" y="264.5669">WMS FeatureInfo</text><!--MD5=[e5e923cdb7c8d476c21e3c850c02dd7d]
link am to GMN43--><path d="M404.9044,127.4788 C393.0582,100.621 367.0054,54.1839 331.5,63.5 C296.7225,72.6252 261.4986,92.1491 234.4202,109.8571 " fill="none" id="am-GMN43" style="stroke: #A80036; stroke-width: 1.0; stroke-dasharray: 7.0,7.0;"/><!--MD5=[08d60bb8b31c952319edcc892a3a4a31]
link cl to ami--><path d="M339,44.1495 C339,67.9853 339,109.3559 339,131.1385 " fill="none" id="cl-&gt;ami" style="stroke: #A80036; stroke-width: 1.0;"/><polygon fill="#A80036" points="339,136.2318,343,127.2318,339,131.2318,335,127.2318,339,136.2318" style="stroke: #A80036; stroke-width: 1.0;"/><!--MD5=[78c25a82f655f5d4d88644e70380a272]
@startuml
[Permission Service] as ps
() HTTP as psi
ps - psi
 
database "Config-DB" {
  [data] as config
}

database "Geo-DB" {
  [data] as data
}

package "QGIS as OGC Server"{

  together {
  [QGIS-Server] as qs
  () WMS as wmi
  () WFS as wfi
  wfi - - qs
  wmi - - qs
  qs - -> data
  qs - -> config
  }
  

  package "WMS Feature Info" {
  	[Controller] as ctr
    [SingleLayerInfo] as sli
    [WMS-Info] as wi
    [DB-Query] as dbq
    [Py-Module] as py
    [HTMLRenderer] as rend
    
    ctr - -> sli
    ctr - -> rend
    ctr - -> config
    sli <|- - wi
    sli <|- - dbq
    sli <|- - py
    wi - -> wmi
    dbq - -> data
  }
  
  
  together {
  [Proxy] as am
  () HTTP as ami
  ami - am
  am - -> psi   
  am - -> wmi
  am - -> wfi
  am - -> ctr : WMS FeatureInfo
  }
  
  note right of am
	Proxy (OGC-Service) macht 
    access management sowie 
    Strukturumbau bei 
    WMS-Aufruf (Facadelayer, ...)
  end note
  
}





[Client] as cl
cl - -> ami
@enduml

PlantUML version 1.2019.11(Sun Sep 22 10:02:15 GMT 2019)
(GPL source distribution)
Java Runtime: OpenJDK Runtime Environment
JVM: OpenJDK 64-Bit Server VM
Java Version: 14-ea+15
Operating System: Linux
Default Encoding: UTF-8
Language: en
Country: US
--></g></svg>