<?xml version="1.0" encoding="UTF-8" standalone="no"?><svg xmlns="http://www.w3.org/2000/svg" xmlns:xlink="http://www.w3.org/1999/xlink" contentScriptType="application/ecmascript" contentStyleType="text/css" height="349px" preserveAspectRatio="none" style="width:573px;height:349px;" version="1.1" viewBox="0 0 573 349" width="573px" zoomAndPan="magnify"><defs><filter height="300%" id="f6ijkbwwl13ri" width="300%" x="-1" y="-1"><feGaussianBlur result="blurOut" stdDeviation="2.0"/><feColorMatrix in="blurOut" result="blurOut2" type="matrix" values="0 0 0 0 0 0 0 0 0 0 0 0 0 0 0 0 0 0 .4 0"/><feOffset dx="4.0" dy="4.0" in="blurOut2" result="blurOut3"/><feBlend in="SourceGraphic" in2="blurOut3" mode="normal"/></filter></defs><g><!--MD5=[86bdda8388e298096fc78b40a38b8aaa]
cluster Edit-DB--><path d="M277,245 C277,235 318,235 318,235 C318,235 359,235 359,245 L359,327 C359,337 318,337 318,337 C318,337 277,337 277,327 L277,245 " fill="#FFFFFF" filter="url(#f6ijkbwwl13ri)" style="stroke: #000000; stroke-width: 1.5;"/><path d="M277,245 C277,255 318,255 318,255 C318,255 359,255 359,245 " fill="none" style="stroke: #000000; stroke-width: 1.5;"/><text fill="#000000" font-family="sans-serif" font-size="14" font-weight="bold" lengthAdjust="spacingAndGlyphs" textLength="56" x="290" y="269.9951">Edit-DB</text><!--MD5=[81482f7ad4b8b05b72c4caf877cf35cf]
cluster Pub-DB--><path d="M383,245 C383,235 424,235 424,235 C424,235 465,235 465,245 L465,327 C465,337 424,337 424,337 C424,337 383,337 383,327 L383,245 " fill="#FFFFFF" filter="url(#f6ijkbwwl13ri)" style="stroke: #000000; stroke-width: 1.5;"/><path d="M383,245 C383,255 424,255 424,255 C424,255 465,255 465,245 " fill="none" style="stroke: #000000; stroke-width: 1.5;"/><text fill="#000000" font-family="sans-serif" font-size="14" font-weight="bold" lengthAdjust="spacingAndGlyphs" textLength="57" x="395.5" y="269.9951">Pub-DB</text><!--MD5=[2ff9ccaa2e0dbc3026bb80e65c7b755d]
cluster GRETL--><polygon fill="#FFFFFF" filter="url(#f6ijkbwwl13ri)" points="22,24,78,24,85,46.2969,396,46.2969,396,211,22,211,22,24" style="stroke: #000000; stroke-width: 1.5;"/><line style="stroke: #000000; stroke-width: 1.5;" x1="22" x2="85" y1="46.2969" y2="46.2969"/><text fill="#000000" font-family="sans-serif" font-size="14" font-weight="bold" lengthAdjust="spacingAndGlyphs" textLength="50" x="26" y="38.9951">GRETL</text><!--MD5=[31b21fb70010ea497407a87b0269b7ad]
entity edit--><rect fill="#FEFECE" filter="url(#f6ijkbwwl13ri)" height="36.2969" style="stroke: #A80036; stroke-width: 1.5;" width="50" x="293" y="285"/><rect fill="#FEFECE" height="5" style="stroke: #A80036; stroke-width: 1.5;" width="10" x="288" y="290"/><rect fill="#FEFECE" height="5" style="stroke: #A80036; stroke-width: 1.5;" width="10" x="288" y="311.2969"/><text fill="#000000" font-family="sans-serif" font-size="14" lengthAdjust="spacingAndGlyphs" textLength="30" x="303" y="307.9951">data</text><!--MD5=[0cd0a9fc04650e5908b120a5d7719c2e]
entity pub--><rect fill="#FEFECE" filter="url(#f6ijkbwwl13ri)" height="36.2969" style="stroke: #A80036; stroke-width: 1.5;" width="50" x="399" y="285"/><rect fill="#FEFECE" height="5" style="stroke: #A80036; stroke-width: 1.5;" width="10" x="394" y="290"/><rect fill="#FEFECE" height="5" style="stroke: #A80036; stroke-width: 1.5;" width="10" x="394" y="311.2969"/><text fill="#000000" font-family="sans-serif" font-size="14" lengthAdjust="spacingAndGlyphs" textLength="30" x="409" y="307.9951">data</text><!--MD5=[946216f6e7d79bb60486ce59f4a09758]
entity jenk--><rect fill="#FEFECE" filter="url(#f6ijkbwwl13ri)" height="36.2969" style="stroke: #A80036; stroke-width: 1.5;" width="69" x="296.5" y="59"/><rect fill="#FEFECE" height="5" style="stroke: #A80036; stroke-width: 1.5;" width="10" x="291.5" y="64"/><rect fill="#FEFECE" height="5" style="stroke: #A80036; stroke-width: 1.5;" width="10" x="291.5" y="85.2969"/><text fill="#000000" font-family="sans-serif" font-size="14" lengthAdjust="spacingAndGlyphs" textLength="49" x="306.5" y="81.9951">Jenkins</text><!--MD5=[0cae755b001df2f0010dede1e2bdc42b]
entity gretl--><rect fill="#FEFECE" filter="url(#f6ijkbwwl13ri)" height="36.2969" style="stroke: #A80036; stroke-width: 1.5;" width="123" x="256.5" y="157"/><rect fill="#FEFECE" height="5" style="stroke: #A80036; stroke-width: 1.5;" width="10" x="251.5" y="162"/><rect fill="#FEFECE" height="5" style="stroke: #A80036; stroke-width: 1.5;" width="10" x="251.5" y="183.2969"/><text fill="#000000" font-family="sans-serif" font-size="14" lengthAdjust="spacingAndGlyphs" textLength="103" x="266.5" y="179.9951">GRETL runtime</text><path d="M38.5,155 L38.5,195.2656 A0,0 0 0 0 38.5,195.2656 L221.5,195.2656 A0,0 0 0 0 221.5,195.2656 L221.5,179 L256.37,175 L221.5,171 L221.5,165 L211.5,155 L38.5,155 A0,0 0 0 0 38.5,155 " fill="#FBFB77" filter="url(#f6ijkbwwl13ri)" style="stroke: #A80036; stroke-width: 1.0;"/><path d="M211.5,155 L211.5,165 L221.5,165 L211.5,155 " fill="#FBFB77" style="stroke: #A80036; stroke-width: 1.0;"/><text fill="#000000" font-family="sans-serif" font-size="13" lengthAdjust="spacingAndGlyphs" textLength="148" x="44.5" y="172.0669">Art der Kommunikation</text><text fill="#000000" font-family="sans-serif" font-size="13" lengthAdjust="spacingAndGlyphs" textLength="158" x="48.5" y="187.1997">Jenkins -&gt; Jenkins Slave?</text><!--MD5=[9ab3177c0a0e3009d2054dc1b40b3e84]
entity lda--><rect fill="#FEFECE" filter="url(#f6ijkbwwl13ri)" height="36.2969" style="stroke: #A80036; stroke-width: 1.5;" width="94" x="468" y="157"/><rect fill="#FEFECE" height="5" style="stroke: #A80036; stroke-width: 1.5;" width="10" x="463" y="162"/><rect fill="#FEFECE" height="5" style="stroke: #A80036; stroke-width: 1.5;" width="10" x="463" y="183.2969"/><text fill="#000000" font-family="sans-serif" font-size="14" lengthAdjust="spacingAndGlyphs" textLength="74" x="478" y="179.9951">OpenLDAP</text><!--MD5=[5ca77e21c6bcece74d0e981bbfd5251c]
entity ldi--><ellipse cx="424" cy="175" fill="#FEFECE" filter="url(#f6ijkbwwl13ri)" rx="8" ry="8" style="stroke: #A80036; stroke-width: 2.0;"/><text fill="#000000" font-family="sans-serif" font-size="14" lengthAdjust="spacingAndGlyphs" textLength="36" x="406" y="204.9951">LDAP</text><!--MD5=[ae38f3df50bbf8acf027574e6a8bac37]
entity repo--><rect fill="#FEFECE" filter="url(#f6ijkbwwl13ri)" height="36.2969" style="stroke: #A80036; stroke-width: 1.5;" width="104" x="154" y="285"/><rect fill="#FEFECE" height="5" style="stroke: #A80036; stroke-width: 1.5;" width="10" x="149" y="290"/><rect fill="#FEFECE" height="5" style="stroke: #A80036; stroke-width: 1.5;" width="10" x="149" y="311.2969"/><text fill="#000000" font-family="sans-serif" font-size="14" lengthAdjust="spacingAndGlyphs" textLength="84" x="164" y="307.9951">Model-Repo</text><!--MD5=[2d30e8113978d148a75683c9387efe9f]
link ldi to lda--><path d="M433.242,175 C444.739,175 456.237,175 467.734,175 " fill="none" id="ldi-lda" style="stroke: #A80036; stroke-width: 1.0;"/><!--MD5=[d7f5ad1d1d4c390e9a8efdd47330042f]
link jenk to gretl--><path d="M328.676,95.163 C326.531,110.999 323.335,134.6 320.999,151.851 " fill="none" id="jenk-&gt;gretl" style="stroke: #A80036; stroke-width: 1.0;"/><polygon fill="#A80036" points="320.304,156.986,325.4764,148.6047,320.9755,152.0313,317.5489,147.5303,320.304,156.986" style="stroke: #A80036; stroke-width: 1.0;"/><!--MD5=[af4b24a0f34c8c7e5e08e5154be3b528]
link jenk to ldi--><path d="M347.627,95.163 C366.122,114.255 395.551,144.634 411.954,161.565 " fill="none" id="jenk-&gt;ldi" style="stroke: #A80036; stroke-width: 1.0;"/><polygon fill="#A80036" points="415.828,165.565,412.4396,156.3174,412.3493,161.9735,406.6932,161.8832,415.828,165.565" style="stroke: #A80036; stroke-width: 1.0;"/><!--MD5=[236982f2b748ad8c89e3d2bed44e7d84]
link gretl to repo--><path d="M302.662,193.256 C282.303,216.159 246.388,256.5633 224.535,281.1481 " fill="none" id="gretl-&gt;repo" style="stroke: #A80036; stroke-width: 1.0;"/><polygon fill="#A80036" points="221.153,284.9528,230.1219,280.8835,224.4748,281.2157,224.1426,275.5686,221.153,284.9528" style="stroke: #A80036; stroke-width: 1.0;"/><!--MD5=[1ad07280fc2d2732df870fe7b37582f0]
link gretl to edit--><path d="M318,193.256 C318,215.782 318,255.2378 318,279.9213 " fill="none" id="gretl-&gt;edit" style="stroke: #A80036; stroke-width: 1.0;"/><polygon fill="#A80036" points="318,284.9528,322,275.9528,318,279.9528,314,275.9528,318,284.9528" style="stroke: #A80036; stroke-width: 1.0;"/><!--MD5=[8d8ba7f5bedb287e12d4c59171a23e6e]
link gretl to pub--><path d="M332.517,193.256 C351.705,216.065 385.496,256.231 406.202,280.8437 " fill="none" id="gretl-&gt;pub" style="stroke: #A80036; stroke-width: 1.0;"/><polygon fill="#A80036" points="409.659,284.9528,406.9255,275.4909,406.44,281.1269,400.804,280.6414,409.659,284.9528" style="stroke: #A80036; stroke-width: 1.0;"/><!--MD5=[64bcf6da0d5acd3f5f3135f848f17c96]
@startuml
[OpenLDAP] as lda
() LDAP as ldi
ldi - lda

database "Edit-DB" {
  [data] as edit
}

database "Pub-DB" {
  [data] as pub
}

[Model-Repo] as repo


package "GRETL" {
  [Jenkins] as jenk
  [GRETL runtime] as gretl
  jenk - -> gretl
  jenk - -> ldi
  gretl - -> repo
  gretl - -> edit
  gretl - -> pub
  
  note left of gretl
  	Art der Kommunikation 
    Jenkins -> Jenkins Slave?
  end note
}
@enduml

PlantUML version 1.2019.13(Tue Dec 10 17:18:29 UTC 2019)
(GPL source distribution)
Java Runtime: OpenJDK Runtime Environment
JVM: OpenJDK 64-Bit Server VM
Java Version: 1.8.0_232-b09
Operating System: Linux
Default Encoding: ANSI_X3.4-1968
Language: en
Country: US
--></g></svg>