<?xml version="1.0" encoding="UTF-8" standalone="no"?><svg xmlns="http://www.w3.org/2000/svg" xmlns:xlink="http://www.w3.org/1999/xlink" contentScriptType="application/ecmascript" contentStyleType="text/css" height="482px" preserveAspectRatio="none" style="width:662px;height:482px;" version="1.1" viewBox="0 0 662 482" width="662px" zoomAndPan="magnify"><defs><filter height="300%" id="f7fautj5btre7" width="300%" x="-1" y="-1"><feGaussianBlur result="blurOut" stdDeviation="2.0"/><feColorMatrix in="blurOut" result="blurOut2" type="matrix" values="0 0 0 0 0 0 0 0 0 0 0 0 0 0 0 0 0 0 .4 0"/><feOffset dx="4.0" dy="4.0" in="blurOut2" result="blurOut3"/><feBlend in="SourceGraphic" in2="blurOut3" mode="normal"/></filter></defs><g><!--MD5=[9a2e14545ff35eb8fb8c7a6692523083]
cluster Config-DB--><path d="M414,239 C414,229 461,229 461,229 C461,229 508,229 508,239 L508,321 C508,331 461,331 461,331 C461,331 414,331 414,321 L414,239 " fill="#FFFFFF" filter="url(#f7fautj5btre7)" style="stroke: #000000; stroke-width: 1.5;"/><path d="M414,239 C414,249 461,249 461,249 C461,249 508,249 508,239 " fill="none" style="stroke: #000000; stroke-width: 1.5;"/><text fill="#000000" font-family="sans-serif" font-size="14" font-weight="bold" lengthAdjust="spacingAndGlyphs" textLength="78" x="422" y="263.9951">Config-DB</text><!--MD5=[3a337bb9fa499dcfc2248c91a2444cbc]
cluster Geo-DB--><path d="M110,239 C110,229 151,229 151,229 C151,229 192,229 192,239 L192,321 C192,331 151,331 151,331 C151,331 110,331 110,321 L110,239 " fill="#FFFFFF" filter="url(#f7fautj5btre7)" style="stroke: #000000; stroke-width: 1.5;"/><path d="M110,239 C110,249 151,249 151,249 C151,249 192,249 192,239 " fill="none" style="stroke: #000000; stroke-width: 1.5;"/><text fill="#000000" font-family="sans-serif" font-size="14" font-weight="bold" lengthAdjust="spacingAndGlyphs" textLength="59" x="121.5" y="263.9951">Geo-DB</text><!--MD5=[2be1c7d8e07b290ce0a12e4e003dd59b]
cluster QGIS Desktop--><polygon fill="#FFFFFF" filter="url(#f7fautj5btre7)" points="22,24,136,24,143,46.2969,239,46.2969,239,133,22,133,22,24" style="stroke: #000000; stroke-width: 1.5;"/><line style="stroke: #000000; stroke-width: 1.5;" x1="22" x2="143" y1="46.2969" y2="46.2969"/><text fill="#000000" font-family="sans-serif" font-size="14" font-weight="bold" lengthAdjust="spacingAndGlyphs" textLength="108" x="26" y="38.9951">QGIS Desktop</text><!--MD5=[caf660ac2a54b55a5c31b5515889e628]
entity config--><rect fill="#FEFECE" filter="url(#f7fautj5btre7)" height="36.2969" style="stroke: #A80036; stroke-width: 1.5;" width="50" x="436" y="279"/><rect fill="#FEFECE" height="5" style="stroke: #A80036; stroke-width: 1.5;" width="10" x="431" y="284"/><rect fill="#FEFECE" height="5" style="stroke: #A80036; stroke-width: 1.5;" width="10" x="431" y="305.2969"/><text fill="#000000" font-family="sans-serif" font-size="14" lengthAdjust="spacingAndGlyphs" textLength="30" x="446" y="301.9951">data</text><!--MD5=[703ea5a149c5871c74522bf38bdfe548]
entity data--><rect fill="#FEFECE" filter="url(#f7fautj5btre7)" height="36.2969" style="stroke: #A80036; stroke-width: 1.5;" width="50" x="126" y="279"/><rect fill="#FEFECE" height="5" style="stroke: #A80036; stroke-width: 1.5;" width="10" x="121" y="284"/><rect fill="#FEFECE" height="5" style="stroke: #A80036; stroke-width: 1.5;" width="10" x="121" y="305.2969"/><text fill="#000000" font-family="sans-serif" font-size="14" lengthAdjust="spacingAndGlyphs" textLength="30" x="136" y="301.9951">data</text><!--MD5=[b5183565dd24eebd71dfeda5f2d582a6]
entity qgis--><ellipse cx="65" cy="88" fill="#FEFECE" filter="url(#f7fautj5btre7)" rx="8" ry="8" style="stroke: #A80036; stroke-width: 2.0;"/><text fill="#000000" font-family="sans-serif" font-size="14" lengthAdjust="spacingAndGlyphs" textLength="34" x="48" y="117.9951">QGIS</text><!--MD5=[d7e357a9d65542d4484f3ff5e134c26a]
entity loc--><rect fill="#FEFECE" filter="url(#f7fautj5btre7)" height="36.2969" style="stroke: #A80036; stroke-width: 1.5;" width="96" x="127" y="70"/><rect fill="#FEFECE" height="5" style="stroke: #A80036; stroke-width: 1.5;" width="10" x="122" y="75"/><rect fill="#FEFECE" height="5" style="stroke: #A80036; stroke-width: 1.5;" width="10" x="122" y="96.2969"/><text fill="#000000" font-family="sans-serif" font-size="14" lengthAdjust="spacingAndGlyphs" textLength="76" x="137" y="92.9951">SO-Locator</text><!--MD5=[9ab3177c0a0e3009d2054dc1b40b3e84]
entity lda--><rect fill="#FEFECE" filter="url(#f7fautj5btre7)" height="36.2969" style="stroke: #A80036; stroke-width: 1.5;" width="94" x="195" y="375"/><rect fill="#FEFECE" height="5" style="stroke: #A80036; stroke-width: 1.5;" width="10" x="190" y="380"/><rect fill="#FEFECE" height="5" style="stroke: #A80036; stroke-width: 1.5;" width="10" x="190" y="401.2969"/><text fill="#000000" font-family="sans-serif" font-size="14" lengthAdjust="spacingAndGlyphs" textLength="74" x="205" y="397.9951">OpenLDAP</text><!--MD5=[5ca77e21c6bcece74d0e981bbfd5251c]
entity ldi--><ellipse cx="151" cy="393" fill="#FEFECE" filter="url(#f7fautj5btre7)" rx="8" ry="8" style="stroke: #A80036; stroke-width: 2.0;"/><text fill="#000000" font-family="sans-serif" font-size="14" lengthAdjust="spacingAndGlyphs" textLength="36" x="133" y="422.9951">LDAP</text><!--MD5=[727c1040af9be188ab17d19c49f9ac10]
entity ds--><rect fill="#FEFECE" filter="url(#f7fautj5btre7)" height="36.2969" style="stroke: #A80036; stroke-width: 1.5;" width="101" x="100.5" y="177"/><rect fill="#FEFECE" height="5" style="stroke: #A80036; stroke-width: 1.5;" width="10" x="95.5" y="182"/><rect fill="#FEFECE" height="5" style="stroke: #A80036; stroke-width: 1.5;" width="10" x="95.5" y="203.2969"/><text fill="#000000" font-family="sans-serif" font-size="14" lengthAdjust="spacingAndGlyphs" textLength="81" x="110.5" y="199.9951">Dataservice</text><!--MD5=[1d42f4435bbf9d96b0849b1fd5c61acc]
entity dsi--><ellipse cx="56" cy="195" fill="#FEFECE" filter="url(#f7fautj5btre7)" rx="8" ry="8" style="stroke: #A80036; stroke-width: 2.0;"/><text fill="#000000" font-family="sans-serif" font-size="14" lengthAdjust="spacingAndGlyphs" textLength="37" x="37.5" y="224.9951">HTTP</text><!--MD5=[72f941736658486a9447ee9af01ffec8]
entity ss--><rect fill="#FEFECE" filter="url(#f7fautj5btre7)" height="36.2969" style="stroke: #A80036; stroke-width: 1.5;" width="117" x="290.5" y="177"/><rect fill="#FEFECE" height="5" style="stroke: #A80036; stroke-width: 1.5;" width="10" x="285.5" y="182"/><rect fill="#FEFECE" height="5" style="stroke: #A80036; stroke-width: 1.5;" width="10" x="285.5" y="203.2969"/><text fill="#000000" font-family="sans-serif" font-size="14" lengthAdjust="spacingAndGlyphs" textLength="97" x="300.5" y="199.9951">Searchservice</text><!--MD5=[063cbf6762d4fa7b9db7b3b5ba06ac49]
entity ssi--><ellipse cx="246" cy="195" fill="#FEFECE" filter="url(#f7fautj5btre7)" rx="8" ry="8" style="stroke: #A80036; stroke-width: 2.0;"/><text fill="#000000" font-family="sans-serif" font-size="14" lengthAdjust="spacingAndGlyphs" textLength="37" x="227.5" y="224.9951">HTTP</text><!--MD5=[607550e39add5cb93f60b7cda3cc28c1]
entity dps--><rect fill="#FEFECE" filter="url(#f7fautj5btre7)" height="36.2969" style="stroke: #A80036; stroke-width: 1.5;" width="155" x="496.5" y="177"/><rect fill="#FEFECE" height="5" style="stroke: #A80036; stroke-width: 1.5;" width="10" x="491.5" y="182"/><rect fill="#FEFECE" height="5" style="stroke: #A80036; stroke-width: 1.5;" width="10" x="491.5" y="203.2969"/><text fill="#000000" font-family="sans-serif" font-size="14" lengthAdjust="spacingAndGlyphs" textLength="135" x="506.5" y="199.9951">Dataproductservice</text><!--MD5=[c50e61c9ad0197b690f27cd008f76451]
entity dpi--><ellipse cx="452" cy="195" fill="#FEFECE" filter="url(#f7fautj5btre7)" rx="8" ry="8" style="stroke: #A80036; stroke-width: 2.0;"/><text fill="#000000" font-family="sans-serif" font-size="14" lengthAdjust="spacingAndGlyphs" textLength="37" x="433.5" y="224.9951">HTTP</text><!--MD5=[2d30e8113978d148a75683c9387efe9f]
link ldi to lda--><path d="M160.242,393 C171.739,393 183.237,393 194.734,393 " fill="none" id="ldi-lda" style="stroke: #A80036; stroke-width: 1.0;"/><!--MD5=[345e2cf8dd3356ec2f8af68b46a0c8a4]
link data to ldi--><path d="M151,315.241 C151,333.5267 151,362.0216 151,378.6646 " fill="none" id="data-&gt;ldi" style="stroke: #A80036; stroke-width: 1.0;"/><polygon fill="#A80036" points="151,383.8226,155,374.8226,151,378.8226,147,374.8226,151,383.8226" style="stroke: #A80036; stroke-width: 1.0;"/><!--MD5=[7b01e19f8baed2eefa6e900310acfe3c]
link dsi to ds--><path d="M65.2773,195 C76.9972,195 88.7171,195 100.437,195 " fill="none" id="dsi-ds" style="stroke: #A80036; stroke-width: 1.0;"/><!--MD5=[c6e8f59a1188210fb1937aa72981a249]
link ds to data--><path d="M151,213.419 C151,230.052 151,255.207 151,273.382 " fill="none" id="ds-&gt;data" style="stroke: #A80036; stroke-width: 1.0;"/><polygon fill="#A80036" points="151,278.781,155,269.781,151,273.781,147,269.781,151,278.781" style="stroke: #A80036; stroke-width: 1.0;"/><!--MD5=[b66822072d056e29c1406c87b452c5e0]
link ssi to ss--><path d="M255.254,195 C266.972,195 278.69,195 290.409,195 " fill="none" id="ssi-ss" style="stroke: #A80036; stroke-width: 1.0;"/><!--MD5=[45dc2bbc73017d6d34a7242452b64be3]
link ss to data--><path d="M314.963,213.191 C277.186,232.27 216.814,262.76 180.825,280.937 " fill="none" id="ss-&gt;data" style="stroke: #A80036; stroke-width: 1.0;"/><polygon fill="#A80036" points="176.129,283.308,185.9659,282.8231,180.5925,281.0548,182.3608,275.6814,176.129,283.308" style="stroke: #A80036; stroke-width: 1.0;"/><!--MD5=[c8a5a99beb1ab3ceb3c2b57986a75e7a]
link ss to config--><path d="M368.253,213.191 C387.566,230.434 417.317,256.998 437.893,275.368 " fill="none" id="ss-&gt;config" style="stroke: #A80036; stroke-width: 1.0;"/><polygon fill="#A80036" points="441.623,278.699,437.5749,269.7206,437.8938,275.3684,432.2459,275.6873,441.623,278.699" style="stroke: #A80036; stroke-width: 1.0;"/><!--MD5=[d82063831456acb34112c7a09583bce9]
link dpi to dps--><path d="M461.055,195 C472.82,195 484.585,195 496.35,195 " fill="none" id="dpi-dps" style="stroke: #A80036; stroke-width: 1.0;"/><!--MD5=[c9979abf8f7ff6f8c8e090ceee87e666]
link dps to config--><path d="M554.575,213.191 C535.09,230.434 505.073,256.998 484.314,275.368 " fill="none" id="dps-&gt;config" style="stroke: #A80036; stroke-width: 1.0;"/><polygon fill="#A80036" points="480.55,278.699,489.941,275.731,484.2947,275.3858,484.6399,269.7395,480.55,278.699" style="stroke: #A80036; stroke-width: 1.0;"/><!--MD5=[976eadaf6f8d8ad9b908f60f6d870ccb]
link qgis to data--><path d="M58.4999,97.267 C43.1713,117.838 7.6116,172.58 29,213 C48.2547,249.388 91.4113,272.798 120.873,285.185 " fill="none" id="qgis-&gt;data" style="stroke: #A80036; stroke-width: 1.0;"/><polygon fill="#A80036" points="125.842,287.225,119.0348,280.1073,121.2165,285.3265,115.9972,287.5081,125.842,287.225" style="stroke: #A80036; stroke-width: 1.0;"/><!--MD5=[de57fd627f280692f074bd35c39ddf45]
link loc to ssi--><path d="M186.724,106.339 C201.03,127.495 224.87,162.751 237.517,181.455 " fill="none" id="loc-&gt;ssi" style="stroke: #A80036; stroke-width: 1.0;"/><polygon fill="#A80036" points="240.479,185.835,238.7511,176.1389,237.6782,181.6931,232.124,180.6202,240.479,185.835" style="stroke: #A80036; stroke-width: 1.0;"/><!--MD5=[14543204e82f02aeb37fe33d9d501313]
link loc to dpi--><path d="M223.272,102.482 C274.583,117.612 357.471,144.364 425,177 C429.542,179.195 434.269,181.979 438.474,184.656 " fill="none" id="loc-&gt;dpi" style="stroke: #A80036; stroke-width: 1.0;"/><polygon fill="#A80036" points="442.8,187.486,437.458,179.2117,438.6157,184.7489,433.0786,185.9066,442.8,187.486" style="stroke: #A80036; stroke-width: 1.0;"/><!--MD5=[0ec1dc07d4de0dd9ed5d244319536877]
link loc to dsi--><path d="M155.616,106.104 C131.165,127.678 89.7982,164.178 68.9021,182.616 " fill="none" id="loc-&gt;dsi" style="stroke: #A80036; stroke-width: 1.0;"/><polygon fill="#A80036" points="65.0069,186.053,74.4022,183.0987,68.7564,182.7453,69.1099,177.0995,65.0069,186.053" style="stroke: #A80036; stroke-width: 1.0;"/><rect fill="#DDDDDD" height="42.5938" rx="5" ry="5" style="stroke: #000000; stroke-width: 1.0;" width="253" x="208" y="429"/><text fill="#000000" font-family="sans-serif" font-size="14" lengthAdjust="spacingAndGlyphs" textLength="221" x="214" y="446.9951">Permissionservice und Weiteres</text><text fill="#000000" font-family="sans-serif" font-size="14" lengthAdjust="spacingAndGlyphs" textLength="241" x="214" y="463.292">von Searchservice nicht abgebildet</text><!--MD5=[c08b3f25785abafa4e65ca19347c2dce]
@startuml
[OpenLDAP] as lda
() LDAP as ldi
ldi - lda

database "Config-DB" {
  [data] as config
}

database "Geo-DB" {
  [data] as data
}
data - -> ldi

[Dataservice] as ds
() HTTP as dsi
dsi -ds
ds - -> data

[Searchservice] as ss
() HTTP as ssi
ssi - ss
ss - -> data
ss - -> config

[Dataproductservice] as dps
() HTTP as dpi
dpi - dps
dps - -> config


package "QGIS Desktop" {
  () "QGIS" as qgis
  qgis - -> data
  [SO-Locator] as loc
  loc - -> ssi
  loc - -> dpi
  loc - -> dsi
}

legend bottom
  Permissionservice und Weiteres 
  von Searchservice nicht abgebildet
endlegend
@enduml

PlantUML version 1.2019.13(Tue Dec 10 17:18:29 UTC 2019)
(GPL source distribution)
Java Runtime: OpenJDK Runtime Environment
JVM: OpenJDK 64-Bit Server VM
Java Version: 1.8.0_232-b09
Operating System: Linux
Default Encoding: ANSI_X3.4-1968
Language: en
Country: US
--></g></svg>