<?xml version="1.0" encoding="UTF-8" standalone="no"?><svg xmlns="http://www.w3.org/2000/svg" xmlns:xlink="http://www.w3.org/1999/xlink" contentScriptType="application/ecmascript" contentStyleType="text/css" height="264px" preserveAspectRatio="none" style="width:518px;height:264px;" version="1.1" viewBox="0 0 518 264" width="518px" zoomAndPan="magnify"><defs><filter height="300%" id="f1byj6ww130wem" width="300%" x="-1" y="-1"><feGaussianBlur result="blurOut" stdDeviation="2.0"/><feColorMatrix in="blurOut" result="blurOut2" type="matrix" values="0 0 0 0 0 0 0 0 0 0 0 0 0 0 0 0 0 0 .4 0"/><feOffset dx="4.0" dy="4.0" in="blurOut2" result="blurOut3"/><feBlend in="SourceGraphic" in2="blurOut3" mode="normal"/></filter></defs><g><polygon fill="#FFFFFF" filter="url(#f1byj6ww130wem)" points="22,98,32,88,207,88,207,146,197,156,22,156,22,98" style="stroke: #000000; stroke-width: 1.5;"/><line style="stroke: #000000; stroke-width: 1.5;" x1="197" x2="206" y1="98" y2="89"/><line style="stroke: #000000; stroke-width: 1.5;" x1="22" x2="197" y1="98" y2="98"/><line style="stroke: #000000; stroke-width: 1.5;" x1="197" x2="197" y1="98" y2="156"/><!--MD5=[18e71c5404ec4caae1c5d4d4a4302a0c]
cluster FeatureInfo - FI--><polygon fill="#FFFFFF" filter="url(#f1byj6ww130wem)" points="231,69,357,69,364,91.2969,496,91.2969,496,252,231,252,231,69" style="stroke: #000000; stroke-width: 1.5;"/><line style="stroke: #000000; stroke-width: 1.5;" x1="231" x2="364" y1="91.2969" y2="91.2969"/><text fill="#000000" font-family="sans-serif" font-size="14" font-weight="bold" lengthAdjust="spacingAndGlyphs" textLength="120" x="235" y="83.9951">FeatureInfo - FI</text><!--MD5=[d8322213e5f4465576b8bf70cd9bce59]
entity s--><rect fill="#FEFECE" filter="url(#f1byj6ww130wem)" height="36.2969" style="stroke: #A80036; stroke-width: 1.5;" width="99" x="38.5" y="104"/><rect fill="#FEFECE" height="5" style="stroke: #A80036; stroke-width: 1.5;" width="10" x="33.5" y="109"/><rect fill="#FEFECE" height="5" style="stroke: #A80036; stroke-width: 1.5;" width="10" x="33.5" y="130.2969"/><text fill="#000000" font-family="sans-serif" font-size="14" lengthAdjust="spacingAndGlyphs" textLength="79" x="48.5" y="126.9951">mapservice</text><!--MD5=[9113fcc272a7d1b0d03ae2bd44c062fe]
entity si--><ellipse cx="182" cy="122" fill="#FEFECE" filter="url(#f1byj6ww130wem)" rx="8" ry="8" style="stroke: #A80036; stroke-width: 2.0;"/><text fill="#000000" font-family="sans-serif" font-size="14" lengthAdjust="spacingAndGlyphs" textLength="34" x="165" y="151.9951">WMS</text><!--MD5=[79d3b2ca01a010aa7ee17b7a65d0e8fb]
entity fi--><rect fill="#FEFECE" filter="url(#f1byj6ww130wem)" height="36.2969" style="stroke: #A80036; stroke-width: 1.5;" width="98" x="300" y="104"/><rect fill="#FEFECE" height="5" style="stroke: #A80036; stroke-width: 1.5;" width="10" x="295" y="109"/><rect fill="#FEFECE" height="5" style="stroke: #A80036; stroke-width: 1.5;" width="10" x="295" y="130.2969"/><text fill="#000000" font-family="sans-serif" font-size="14" lengthAdjust="spacingAndGlyphs" textLength="78" x="310" y="126.9951">FeatureInfo</text><!--MD5=[559b856ebbf6540c39b50745da7961f2]
entity sq--><rect fill="#FEFECE" filter="url(#f1byj6ww130wem)" height="36.2969" style="stroke: #A80036; stroke-width: 1.5;" width="106" x="247" y="200"/><rect fill="#FEFECE" height="5" style="stroke: #A80036; stroke-width: 1.5;" width="10" x="242" y="205"/><rect fill="#FEFECE" height="5" style="stroke: #A80036; stroke-width: 1.5;" width="10" x="242" y="226.2969"/><text fill="#000000" font-family="sans-serif" font-size="14" lengthAdjust="spacingAndGlyphs" textLength="86" x="257" y="222.9951">SpatialQuery</text><!--MD5=[c617d1e94391e02d80a02faf38d11fae]
entity m--><rect fill="#FEFECE" filter="url(#f1byj6ww130wem)" height="36.2969" style="stroke: #A80036; stroke-width: 1.5;" width="92" x="388" y="200"/><rect fill="#FEFECE" height="5" style="stroke: #A80036; stroke-width: 1.5;" width="10" x="383" y="205"/><rect fill="#FEFECE" height="5" style="stroke: #A80036; stroke-width: 1.5;" width="10" x="383" y="226.2969"/><text fill="#000000" font-family="sans-serif" font-size="14" lengthAdjust="spacingAndGlyphs" textLength="72" x="398" y="222.9951">Py-Module</text><!--MD5=[76df9024bc860617f605c668b5669552]
entity fii--><ellipse cx="256" cy="122" fill="#FEFECE" filter="url(#f1byj6ww130wem)" rx="8" ry="8" style="stroke: #A80036; stroke-width: 2.0;"/><text fill="#000000" font-family="sans-serif" font-size="14" lengthAdjust="spacingAndGlyphs" textLength="58" x="227" y="151.9951">WMS - FI</text><!--MD5=[8e9b2d9d80e066cced8e5d90e9bdea61]
entity c--><rect fill="#FEFECE" filter="url(#f1byj6ww130wem)" height="36.2969" style="stroke: #A80036; stroke-width: 1.5;" width="57" x="190.5" y="8"/><rect fill="#FEFECE" height="5" style="stroke: #A80036; stroke-width: 1.5;" width="10" x="185.5" y="13"/><rect fill="#FEFECE" height="5" style="stroke: #A80036; stroke-width: 1.5;" width="10" x="185.5" y="34.2969"/><text fill="#000000" font-family="sans-serif" font-size="14" lengthAdjust="spacingAndGlyphs" textLength="37" x="200.5" y="30.9951">client</text><!--MD5=[d571e37985bbf5ab3778cbab958bbf58]
link s to si--><path d="M137.57,122 C149.372,122 161.174,122 172.975,122 " fill="none" id="s-si" style="stroke: #A80036; stroke-width: 1.0;"/><!--MD5=[5a7883a67c3002c526cab5dba50b8574]
link fii to fi--><path d="M265.082,122 C276.664,122 288.247,122 299.829,122 " fill="none" id="fii-fi" style="stroke: #A80036; stroke-width: 1.0;"/><!--MD5=[1f6fe1bd8645ddb96c34846b6d9ffeeb]
reverse link fi to sq--><path d="M330.663,158.178 C323.233,172.4301 314.995,188.2338 308.93,199.8683 " fill="none" id="fi&lt;-sq" style="stroke: #A80036; stroke-width: 1.0;"/><polygon fill="none" points="324.56,154.74,340.013,140.241,336.975,161.212,324.56,154.74" style="stroke: #A80036; stroke-width: 1.0;"/><!--MD5=[823c044a8f67ff4c30c7617064e90220]
reverse link fi to m--><path d="M378.195,155.286 C391.731,170.2557 407.271,187.4406 418.509,199.8683 " fill="none" id="fi&lt;-m" style="stroke: #A80036; stroke-width: 1.0;"/><polygon fill="none" points="372.812,159.77,364.59,140.241,383.197,150.381,372.812,159.77" style="stroke: #A80036; stroke-width: 1.0;"/><!--MD5=[c495a7bcaac895366cd2939c52816d58]
link c to si--><path d="M212.214,44.241 C204.953,62.686 193.605,91.518 187.079,108.096 " fill="none" id="c-&gt;si" style="stroke: #A80036; stroke-width: 1.0;"/><polygon fill="#A80036" points="185.219,112.823,192.2374,105.9134,187.0503,108.1704,184.7933,102.9833,185.219,112.823" style="stroke: #A80036; stroke-width: 1.0;"/><!--MD5=[65144bfbcda83f70e7272e566b2c255a]
link c to fii--><path d="M225.786,44.241 C233.047,62.686 244.395,91.518 250.921,108.096 " fill="none" id="c-&gt;fii" style="stroke: #A80036; stroke-width: 1.0;"/><polygon fill="#A80036" points="252.781,112.823,253.2067,102.9833,250.9497,108.1704,245.7626,105.9134,252.781,112.823" style="stroke: #A80036; stroke-width: 1.0;"/><!--MD5=[ae1d15a33bc6b03093cbae424c22eb7e]
@startuml
[client] as c

node {
[mapservice] as s
() WMS as si
s -right- si
}

package "FeatureInfo - FI" {
  [FeatureInfo] as fi
  [SpatialQuery] as sq
  [Py-Module] as m
  () "WMS - FI" as fii
  fii -right- fi
  
  fi <|- - sq
  fi <|- - m
}

c - -> si
c - -> fii
@enduml

PlantUML version 1.2019.13(Tue Dec 10 17:18:29 UTC 2019)
(GPL source distribution)
Java Runtime: OpenJDK Runtime Environment
JVM: OpenJDK 64-Bit Server VM
Java Version: 1.8.0_232-b09
Operating System: Linux
Default Encoding: ANSI_X3.4-1968
Language: en
Country: US
--></g></svg>