<?xml version="1.0" encoding="UTF-8" standalone="no"?><svg xmlns="http://www.w3.org/2000/svg" xmlns:xlink="http://www.w3.org/1999/xlink" contentScriptType="application/ecmascript" contentStyleType="text/css" height="256px" preserveAspectRatio="none" style="width:467px;height:256px;" version="1.1" viewBox="0 0 467 256" width="467px" zoomAndPan="magnify"><defs><filter height="300%" id="f1byj6ww130wem" width="300%" x="-1" y="-1"><feGaussianBlur result="blurOut" stdDeviation="2.0"/><feColorMatrix in="blurOut" result="blurOut2" type="matrix" values="0 0 0 0 0 0 0 0 0 0 0 0 0 0 0 0 0 0 .4 0"/><feOffset dx="4.0" dy="4.0" in="blurOut2" result="blurOut3"/><feBlend in="SourceGraphic" in2="blurOut3" mode="normal"/></filter></defs><g><polygon fill="#FFFFFF" filter="url(#f1byj6ww130wem)" points="14,106,24,96,183,96,183,138,173,148,14,148,14,106" style="stroke: #000000; stroke-width: 1.5;"/><line style="stroke: #000000; stroke-width: 1.5;" x1="173" x2="182" y1="106" y2="97"/><line style="stroke: #000000; stroke-width: 1.5;" x1="14" x2="173" y1="106" y2="106"/><line style="stroke: #000000; stroke-width: 1.5;" x1="173" x2="173" y1="106" y2="148"/><!--MD5=[18e71c5404ec4caae1c5d4d4a4302a0c]
cluster FeatureInfo - FI--><polygon fill="#FFFFFF" filter="url(#f1byj6ww130wem)" points="196,77,322,77,329,99.2969,445,99.2969,445,244,196,244,196,77" style="stroke: #000000; stroke-width: 1.5;"/><line style="stroke: #000000; stroke-width: 1.5;" x1="196" x2="329" y1="99.2969" y2="99.2969"/><text fill="#000000" font-family="sans-serif" font-size="14" font-weight="bold" lengthAdjust="spacingAndGlyphs" textLength="120" x="200" y="91.9951">FeatureInfo - FI</text><!--MD5=[d8322213e5f4465576b8bf70cd9bce59]
entity s--><rect fill="#FEFECE" filter="url(#f1byj6ww130wem)" height="36.2969" style="stroke: #A80036; stroke-width: 1.5;" width="99" x="22.5" y="104"/><rect fill="#FEFECE" height="5" style="stroke: #A80036; stroke-width: 1.5;" width="10" x="17.5" y="109"/><rect fill="#FEFECE" height="5" style="stroke: #A80036; stroke-width: 1.5;" width="10" x="17.5" y="130.2969"/><text fill="#000000" font-family="sans-serif" font-size="14" lengthAdjust="spacingAndGlyphs" textLength="79" x="32.5" y="126.9951">mapservice</text><!--MD5=[9113fcc272a7d1b0d03ae2bd44c062fe]
entity si--><ellipse cx="166" cy="122" fill="#FEFECE" filter="url(#f1byj6ww130wem)" rx="8" ry="8" style="stroke: #A80036; stroke-width: 2.0;"/><text fill="#000000" font-family="sans-serif" font-size="14" lengthAdjust="spacingAndGlyphs" textLength="34" x="149" y="151.9951">WMS</text><!--MD5=[79d3b2ca01a010aa7ee17b7a65d0e8fb]
entity fi--><rect fill="#FEFECE" filter="url(#f1byj6ww130wem)" height="36.2969" style="stroke: #A80036; stroke-width: 1.5;" width="98" x="263" y="104"/><rect fill="#FEFECE" height="5" style="stroke: #A80036; stroke-width: 1.5;" width="10" x="258" y="109"/><rect fill="#FEFECE" height="5" style="stroke: #A80036; stroke-width: 1.5;" width="10" x="258" y="130.2969"/><text fill="#000000" font-family="sans-serif" font-size="14" lengthAdjust="spacingAndGlyphs" textLength="78" x="273" y="126.9951">FeatureInfo</text><!--MD5=[559b856ebbf6540c39b50745da7961f2]
entity sq--><rect fill="#FEFECE" filter="url(#f1byj6ww130wem)" height="36.2969" style="stroke: #A80036; stroke-width: 1.5;" width="106" x="204" y="200"/><rect fill="#FEFECE" height="5" style="stroke: #A80036; stroke-width: 1.5;" width="10" x="199" y="205"/><rect fill="#FEFECE" height="5" style="stroke: #A80036; stroke-width: 1.5;" width="10" x="199" y="226.2969"/><text fill="#000000" font-family="sans-serif" font-size="14" lengthAdjust="spacingAndGlyphs" textLength="86" x="214" y="222.9951">SpatialQuery</text><!--MD5=[c617d1e94391e02d80a02faf38d11fae]
entity m--><rect fill="#FEFECE" filter="url(#f1byj6ww130wem)" height="36.2969" style="stroke: #A80036; stroke-width: 1.5;" width="92" x="345" y="200"/><rect fill="#FEFECE" height="5" style="stroke: #A80036; stroke-width: 1.5;" width="10" x="340" y="205"/><rect fill="#FEFECE" height="5" style="stroke: #A80036; stroke-width: 1.5;" width="10" x="340" y="226.2969"/><text fill="#000000" font-family="sans-serif" font-size="14" lengthAdjust="spacingAndGlyphs" textLength="72" x="355" y="222.9951">Py-Module</text><!--MD5=[76df9024bc860617f605c668b5669552]
entity fii--><ellipse cx="219" cy="122" fill="#FEFECE" filter="url(#f1byj6ww130wem)" rx="8" ry="8" style="stroke: #A80036; stroke-width: 2.0;"/><text fill="#000000" font-family="sans-serif" font-size="14" lengthAdjust="spacingAndGlyphs" textLength="58" x="190" y="151.9951">WMS - FI</text><!--MD5=[8e9b2d9d80e066cced8e5d90e9bdea61]
entity c--><rect fill="#FEFECE" filter="url(#f1byj6ww130wem)" height="36.2969" style="stroke: #A80036; stroke-width: 1.5;" width="57" x="163.5" y="8"/><rect fill="#FEFECE" height="5" style="stroke: #A80036; stroke-width: 1.5;" width="10" x="158.5" y="13"/><rect fill="#FEFECE" height="5" style="stroke: #A80036; stroke-width: 1.5;" width="10" x="158.5" y="34.2969"/><text fill="#000000" font-family="sans-serif" font-size="14" lengthAdjust="spacingAndGlyphs" textLength="37" x="173.5" y="30.9951">client</text><!--MD5=[d571e37985bbf5ab3778cbab958bbf58]
link s to si--><path d="M121.5703,122 C133.3719,122 145.1736,122 156.9752,122 " fill="none" id="s-si" style="stroke: #A80036; stroke-width: 1.0;"/><!--MD5=[5a7883a67c3002c526cab5dba50b8574]
link fii to fi--><path d="M228.082,122 C239.6645,122 251.2469,122 262.8293,122 " fill="none" id="fii-fi" style="stroke: #A80036; stroke-width: 1.0;"/><!--MD5=[1f6fe1bd8645ddb96c34846b6d9ffeeb]
reverse link fi to sq--><path d="M291.6548,157.5117 C283.4407,171.849 274.3114,187.7838 267.4857,199.6977 " fill="none" id="fi&lt;-sq" style="stroke: #A80036; stroke-width: 1.0;"/><polygon fill="none" points="285.6388,153.9308,301.6549,140.0569,297.7864,160.8904,285.6388,153.9308" style="stroke: #A80036; stroke-width: 1.0;"/><!--MD5=[823c044a8f67ff4c30c7617064e90220]
reverse link fi to m--><path d="M339.6408,155.5888 C351.8362,170.4085 365.6939,187.2483 375.9387,199.6977 " fill="none" id="fi&lt;-m" style="stroke: #A80036; stroke-width: 1.0;"/><polygon fill="none" points="334.1627,159.9481,326.8593,140.0569,344.973,151.0521,334.1627,159.9481" style="stroke: #A80036; stroke-width: 1.0;"/><!--MD5=[c495a7bcaac895366cd2939c52816d58]
link c to si--><path d="M187.1096,44.0569 C182.0971,62.5644 174.4065,90.9605 169.8227,107.8854 " fill="none" id="c-&gt;si" style="stroke: #A80036; stroke-width: 1.0;"/><polygon fill="#A80036" points="168.5063,112.7461,174.72,105.1048,169.8134,107.92,166.9983,103.0134,168.5063,112.7461" style="stroke: #A80036; stroke-width: 1.0;"/><!--MD5=[65144bfbcda83f70e7272e566b2c255a]
link c to fii--><path d="M197.0785,44.0569 C202.2837,62.5644 210.2701,90.9605 215.0303,107.8854 " fill="none" id="c-&gt;fii" style="stroke: #A80036; stroke-width: 1.0;"/><polygon fill="#A80036" points="216.3973,112.7461,217.811,102.9992,215.0435,107.9329,210.1098,105.1654,216.3973,112.7461" style="stroke: #A80036; stroke-width: 1.0;"/><!--MD5=[60356b222183024cb2bca7d96b081b30]
@startuml
[client] as c

node {
[mapservice] as s
() WMS as si
s -right- si
}

package "FeatureInfo - FI" {
  [FeatureInfo] as fi
  [SpatialQuery] as sq
  [Py-Module] as m
  () "WMS - FI" as fii
  fii -right- fi
  
  fi <|- - sq
  fi <|- - m
}

c - -> si
c - -> fii
@enduml

PlantUML version 1.2019.11(Sun Sep 22 10:02:15 GMT 2019)
(GPL source distribution)
Java Runtime: OpenJDK Runtime Environment
JVM: OpenJDK 64-Bit Server VM
Java Version: 14-ea+15
Operating System: Linux
Default Encoding: UTF-8
Language: en
Country: US
--></g></svg>